<?xml version="1.0" encoding="UTF-8"?>
<svg xmlns="http://www.w3.org/2000/svg" xmlns:xlink="http://www.w3.org/1999/xlink" width="30pt" height="30.000001pt" viewBox="0 0 30 30.000001" version="1.2">
<defs>
<clipPath id="clip1">
  <path d="M 2.113281 2.175781 L 28.242188 2.175781 L 28.242188 26.855469 L 2.113281 26.855469 Z M 2.113281 2.175781 "/>
</clipPath>
</defs>
<g id="surface1">
<g clip-path="url(#clip1)" clip-rule="nonzero">
<path style=" stroke:none;fill-rule:nonzero;fill:rgb(100%,83.529663%,30.979919%);fill-opacity:1;" d="M 27.636719 9.65625 L 17.027344 9.65625 L 19.351562 7.363281 C 19.457031 7.257812 19.511719 7.132812 19.511719 6.984375 C 19.511719 6.835938 19.457031 6.710938 19.351562 6.605469 L 15.019531 2.335938 C 14.914062 2.230469 14.785156 2.179688 14.636719 2.179688 C 14.484375 2.179688 14.359375 2.230469 14.253906 2.335938 L 2.335938 14.085938 C 2.230469 14.191406 2.175781 14.316406 2.175781 14.464844 C 2.175781 14.609375 2.230469 14.738281 2.335938 14.839844 L 14.253906 26.59375 C 14.359375 26.695312 14.484375 26.75 14.636719 26.75 C 14.785156 26.75 14.914062 26.695312 15.019531 26.59375 L 19.351562 22.320312 C 19.457031 22.214844 19.511719 22.089844 19.511719 21.941406 C 19.511719 21.792969 19.457031 21.667969 19.351562 21.5625 L 17.027344 19.269531 L 27.636719 19.269531 C 27.785156 19.269531 27.914062 19.21875 28.019531 19.113281 C 28.125 19.007812 28.179688 18.882812 28.179688 18.734375 L 28.179688 10.1875 C 28.179688 10.042969 28.125 9.914062 28.019531 9.8125 C 27.914062 9.707031 27.785156 9.65625 27.636719 9.65625 Z M 27.636719 9.65625 "/>
<path style=" stroke:none;fill-rule:nonzero;fill:rgb(8.628845%,41.569519%,85.879517%);fill-opacity:1;" d="M 14.636719 26.746094 C 14.488281 26.746094 14.359375 26.695312 14.253906 26.59375 L 2.335938 14.839844 C 2.230469 14.738281 2.175781 14.609375 2.175781 14.464844 C 2.175781 14.316406 2.230469 14.191406 2.335938 14.085938 L 14.253906 2.335938 C 14.359375 2.230469 14.484375 2.179688 14.636719 2.179688 C 14.785156 2.179688 14.914062 2.230469 15.019531 2.335938 L 19.351562 6.605469 C 19.457031 6.710938 19.511719 6.835938 19.511719 6.984375 C 19.511719 7.132812 19.457031 7.257812 19.351562 7.363281 L 17.027344 9.65625 L 27.636719 9.65625 C 27.785156 9.65625 27.914062 9.707031 28.019531 9.8125 C 28.125 9.914062 28.179688 10.042969 28.179688 10.1875 L 28.179688 18.734375 C 28.179688 18.882812 28.125 19.007812 28.019531 19.113281 C 27.914062 19.21875 27.785156 19.269531 27.636719 19.269531 L 17.027344 19.269531 L 19.351562 21.5625 C 19.457031 21.667969 19.511719 21.792969 19.511719 21.941406 C 19.511719 22.085938 19.457031 22.214844 19.351562 22.316406 L 15.019531 26.589844 C 14.914062 26.695312 14.785156 26.746094 14.636719 26.746094 Z M 3.484375 14.460938 L 14.636719 25.457031 L 18.203125 21.941406 L 15.335938 19.113281 C 15.167969 18.945312 15.125 18.75 15.21875 18.53125 C 15.3125 18.3125 15.476562 18.203125 15.71875 18.203125 L 27.09375 18.203125 L 27.09375 10.722656 L 15.71875 10.722656 C 15.476562 10.722656 15.3125 10.613281 15.21875 10.394531 C 15.125 10.171875 15.164062 9.980469 15.335938 9.8125 L 18.203125 6.984375 L 14.636719 3.464844 Z M 3.484375 14.460938 "/>
</g>
</g>
</svg>
