<?xml version="1.0" encoding="UTF-8"?>
<svg xmlns="http://www.w3.org/2000/svg" xmlns:xlink="http://www.w3.org/1999/xlink" width="30pt" height="30.000001pt" viewBox="0 0 30 30.000001" version="1.2">
<defs>
<clipPath id="clip1">
  <path d="M 1.5 1.015625 L 28.355469 1.015625 L 28.355469 27.871094 L 1.5 27.871094 Z M 1.5 1.015625 "/>
</clipPath>
</defs>
<g id="surface1">
<g clip-path="url(#clip1)" clip-rule="nonzero">
<path style=" stroke:none;fill-rule:nonzero;fill:rgb(100%,100%,100%);fill-opacity:1;" d="M 14.925781 27.871094 C 7.523438 27.871094 1.5 21.847656 1.5 14.445312 C 1.5 7.039062 7.523438 1.015625 14.925781 1.015625 C 22.332031 1.015625 28.355469 7.039062 28.355469 14.445312 C 28.355469 21.847656 22.332031 27.871094 14.925781 27.871094 Z M 14.925781 2.964844 C 8.59375 2.964844 3.445312 8.113281 3.445312 14.445312 C 3.445312 20.773438 8.59375 25.925781 14.925781 25.925781 C 21.257812 25.925781 26.410156 20.773438 26.410156 14.445312 C 26.410156 8.113281 21.257812 2.964844 14.925781 2.964844 Z M 14.925781 2.964844 "/>
</g>
<path style=" stroke:none;fill-rule:nonzero;fill:rgb(100%,100%,100%);fill-opacity:1;" d="M 15.203125 21.410156 C 15.101562 21.371094 14.988281 21.308594 14.988281 21.039062 C 14.988281 20.925781 15.007812 20.796875 15.046875 20.640625 L 16.742188 12.417969 C 16.78125 12.226562 16.800781 12.023438 16.800781 11.820312 C 16.800781 11.289062 16.636719 10.886719 16.3125 10.617188 C 15.589844 10.023438 14.320312 10.140625 12.214844 10.851562 L 12.007812 10.921875 L 11.925781 11.980469 L 12.277344 11.980469 C 13.351562 11.980469 13.613281 12.066406 13.664062 12.089844 C 13.738281 12.125 13.777344 12.167969 13.777344 12.289062 C 13.777344 12.355469 13.769531 12.429688 13.75 12.515625 C 13.730469 12.625 13.703125 12.753906 13.679688 12.894531 L 12.125 20.445312 C 12.054688 20.824219 12.015625 21.152344 12.015625 21.414062 C 12.015625 22.015625 12.191406 22.480469 12.527344 22.792969 C 12.859375 23.097656 13.316406 23.253906 13.882812 23.253906 C 14.542969 23.253906 15.433594 23.070312 16.597656 22.695312 L 16.804688 22.628906 L 16.890625 21.550781 L 16.539062 21.550781 C 15.742188 21.550781 15.375 21.476562 15.203125 21.410156 Z M 15.203125 21.410156 "/>
<path style=" stroke:none;fill-rule:nonzero;fill:rgb(100%,100%,100%);fill-opacity:1;" d="M 17.4375 6.09375 C 17.117188 5.789062 16.707031 5.632812 16.214844 5.632812 C 15.707031 5.632812 15.277344 5.796875 14.941406 6.125 C 14.597656 6.457031 14.425781 6.902344 14.425781 7.449219 C 14.425781 7.953125 14.589844 8.371094 14.914062 8.691406 C 15.242188 9.019531 15.65625 9.183594 16.148438 9.183594 C 16.652344 9.183594 17.078125 9.007812 17.417969 8.667969 C 17.757812 8.324219 17.925781 7.878906 17.925781 7.34375 C 17.925781 6.820312 17.761719 6.402344 17.4375 6.09375 Z M 17.4375 6.09375 "/>
</g>
</svg>
