<?xml version="1.0" encoding="UTF-8"?>
<svg xmlns="http://www.w3.org/2000/svg" xmlns:xlink="http://www.w3.org/1999/xlink" width="75pt" height="74.999997pt" viewBox="0 0 75 74.999997" version="1.2">
<defs>
<clipPath id="clip1">
  <path d="M 3.261719 5.707031 L 49.011719 5.707031 L 49.011719 51.457031 L 3.261719 51.457031 Z M 3.261719 5.707031 "/>
</clipPath>
<clipPath id="clip2">
  <path d="M 46.058594 21.425781 L 70 21.425781 L 70 68.675781 L 46.058594 68.675781 Z M 46.058594 21.425781 "/>
</clipPath>
</defs>
<g id="surface1">
<g clip-path="url(#clip1)" clip-rule="nonzero">
<path style=" stroke:none;fill-rule:nonzero;fill:rgb(100%,75.689697%,2.749634%);fill-opacity:1;" d="M 48.082031 5.734375 L 20.316406 9.472656 C 19.914062 9.527344 19.613281 9.871094 19.613281 10.277344 L 19.613281 37.222656 C 19.613281 37.617188 19.417969 37.988281 19.097656 38.21875 C 18.773438 38.445312 18.355469 38.503906 17.980469 38.371094 C 16.824219 37.960938 15.5625 37.753906 14.257812 37.753906 C 13.511719 37.753906 12.75 37.824219 11.984375 37.957031 C 6.894531 38.855469 3.269531 42.515625 3.90625 46.117188 C 4.210938 47.832031 5.4375 49.289062 7.363281 50.21875 C 9.339844 51.171875 11.800781 51.457031 14.292969 51.015625 C 18.734375 50.230469 22.148438 47.316406 22.417969 44.082031 L 22.488281 21.640625 C 22.492188 21.042969 22.941406 20.53125 23.535156 20.449219 L 44.757812 17.59375 C 45.105469 17.546875 45.453125 17.652344 45.714844 17.882812 C 45.976562 18.109375 46.128906 18.441406 46.128906 18.789062 L 46.128906 36.238281 C 46.128906 36.632812 45.933594 37.003906 45.613281 37.230469 C 45.289062 37.460938 44.871094 37.519531 44.496094 37.386719 C 42.679688 36.742188 40.605469 36.601562 38.496094 36.972656 C 33.410156 37.871094 29.785156 41.53125 30.421875 45.132812 C 31.058594 48.730469 35.71875 50.929688 40.808594 50.03125 C 45.25 49.246094 48.664062 46.332031 48.933594 43.097656 L 49.003906 6.539062 C 49.003906 6.300781 48.90625 6.085938 48.726562 5.929688 C 48.546875 5.773438 48.320312 5.707031 48.082031 5.734375 "/>
</g>
<g clip-path="url(#clip2)" clip-rule="nonzero">
<path style=" stroke:none;fill-rule:nonzero;fill:rgb(12.939453%,58.81958%,95.289612%);fill-opacity:1;" d="M 51.289062 68.203125 C 47.828125 67.75 46.078125 64.265625 47.375 60.535156 C 48.679688 56.847656 52.457031 54.1875 55.898438 54.589844 C 56.851562 54.707031 57.699219 55.042969 58.394531 55.554688 C 58.011719 50.121094 57.640625 44.582031 57.234375 39.039062 C 56.820312 33.429688 56.441406 27.671875 56.113281 21.851562 C 56.113281 21.785156 56.164062 21.765625 56.191406 21.761719 C 56.722656 21.675781 57.246094 21.570312 57.820312 21.449219 C 57.851562 21.441406 57.902344 21.441406 57.871094 21.5 C 59.0625 26.800781 62.441406 30.617188 65.207031 34.40625 C 67.960938 38.179688 70.09375 41.949219 68.691406 47.015625 C 68.402344 48.066406 67.734375 49.851562 66.789062 51.386719 C 66.714844 51.5 66.535156 51.585938 66.4375 51.492188 C 66.277344 51.445312 66.261719 51.265625 66.261719 51.136719 C 66.742188 49.613281 67.328125 47.917969 67.433594 46.964844 C 67.644531 45.042969 67.636719 43.492188 67.28125 42.226562 C 65.765625 36.78125 60.539062 36.746094 58.625 33.667969 C 59.179688 41.984375 59.722656 50.167969 60.265625 58.1875 C 60.375 59.765625 60.507812 60.75 59.851562 62.441406 C 58.484375 66.101562 54.707031 68.636719 51.289062 68.203125 Z M 51.289062 68.203125 "/>
</g>
</g>
</svg>
