<?xml version="1.0" encoding="UTF-8"?>
<svg xmlns="http://www.w3.org/2000/svg" xmlns:xlink="http://www.w3.org/1999/xlink" width="75pt" height="74.999997pt" viewBox="0 0 75 74.999997" version="1.2">
<defs>
<clipPath id="clip1">
  <path d="M 2 2.875 L 73 2.875 L 73 30 L 2 30 Z M 2 2.875 "/>
</clipPath>
<clipPath id="clip2">
  <path d="M 1.289062 6 L 30 6 L 30 51 L 1.289062 51 Z M 1.289062 6 "/>
</clipPath>
<clipPath id="clip3">
  <path d="M 46 6 L 74.039062 6 L 74.039062 51 L 46 51 Z M 46 6 "/>
</clipPath>
<clipPath id="clip4">
  <path d="M 20 37 L 56 37 L 56 71.628906 L 20 71.628906 Z M 20 37 "/>
</clipPath>
<clipPath id="clip5">
  <path d="M 20 37 L 56 37 L 56 71.628906 L 20 71.628906 Z M 20 37 "/>
</clipPath>
<clipPath id="clip6">
  <path d="M 1.289062 2.875 L 74.039062 2.875 L 74.039062 53 L 1.289062 53 Z M 1.289062 2.875 "/>
</clipPath>
</defs>
<g id="surface1">
<path style=" stroke:none;fill-rule:nonzero;fill:rgb(100%,62.748718%,0%);fill-opacity:1;" d="M 72.054688 50.59375 C 71.308594 51.328125 70.445312 51.890625 69.472656 52.285156 C 68.496094 52.683594 67.484375 52.878906 66.429688 52.875 L 9.242188 52.875 C 8.1875 52.878906 7.171875 52.683594 6.199219 52.285156 C 5.222656 51.890625 4.363281 51.328125 3.617188 50.59375 L 29.542969 25.09375 L 33.925781 28.21875 C 34.492188 28.628906 35.109375 28.945312 35.777344 29.160156 C 36.445312 29.375 37.132812 29.484375 37.835938 29.484375 C 38.539062 29.484375 39.222656 29.375 39.890625 29.160156 C 40.558594 28.945312 41.175781 28.628906 41.742188 28.21875 L 46.128906 25.09375 Z M 72.054688 50.59375 "/>
<g clip-path="url(#clip1)" clip-rule="nonzero">
<path style=" stroke:none;fill-rule:nonzero;fill:rgb(100%,83.529663%,30.979919%);fill-opacity:1;" d="M 72.847656 6.09375 L 46.128906 25.09375 L 41.742188 28.21875 C 41.175781 28.628906 40.558594 28.945312 39.890625 29.160156 C 39.222656 29.375 38.539062 29.484375 37.835938 29.484375 C 37.132812 29.484375 36.445312 29.375 35.777344 29.160156 C 35.109375 28.945312 34.492188 28.628906 33.925781 28.21875 L 29.542969 25.09375 L 2.789062 6.125 C 3.535156 5.101562 4.476562 4.300781 5.613281 3.726562 C 6.753906 3.15625 7.960938 2.871094 9.242188 2.875 L 66.429688 2.875 C 67.699219 2.875 68.898438 3.160156 70.03125 3.726562 C 71.160156 4.292969 72.101562 5.082031 72.847656 6.09375 Z M 72.847656 6.09375 "/>
</g>
<g clip-path="url(#clip2)" clip-rule="nonzero">
<path style=" stroke:none;fill-rule:nonzero;fill:rgb(100%,75.689697%,2.749634%);fill-opacity:1;" d="M 2.789062 6.125 L 29.542969 25.09375 L 3.617188 50.59375 C 2.871094 49.863281 2.300781 49.015625 1.898438 48.058594 C 1.496094 47.097656 1.296875 46.101562 1.296875 45.0625 L 1.296875 10.6875 C 1.289062 9.003906 1.789062 7.484375 2.789062 6.125 Z M 2.789062 6.125 "/>
</g>
<g clip-path="url(#clip3)" clip-rule="nonzero">
<path style=" stroke:none;fill-rule:nonzero;fill:rgb(100%,75.689697%,2.749634%);fill-opacity:1;" d="M 74.371094 10.6875 L 74.371094 45.0625 C 74.375 46.101562 74.175781 47.097656 73.773438 48.058594 C 73.371094 49.015625 72.796875 49.863281 72.054688 50.59375 L 46.128906 25.09375 L 72.847656 6.09375 C 73.863281 7.460938 74.375 8.992188 74.371094 10.6875 Z M 74.371094 10.6875 "/>
</g>
<g clip-path="url(#clip4)" clip-rule="nonzero">
<path style=" stroke:none;fill-rule:nonzero;fill:rgb(12.939453%,58.81958%,95.289612%);fill-opacity:1;" d="M 55.308594 54.441406 C 55.308594 55.003906 55.28125 55.5625 55.226562 56.125 C 55.167969 56.683594 55.085938 57.242188 54.972656 57.792969 C 54.863281 58.34375 54.722656 58.890625 54.558594 59.429688 C 54.390625 59.96875 54.199219 60.496094 53.980469 61.015625 C 53.761719 61.539062 53.515625 62.046875 53.246094 62.542969 C 52.976562 63.039062 52.683594 63.519531 52.363281 63.988281 C 52.046875 64.457031 51.707031 64.910156 51.34375 65.34375 C 50.980469 65.777344 50.597656 66.195312 50.191406 66.59375 C 49.785156 66.992188 49.363281 67.371094 48.921875 67.726562 C 48.476562 68.082031 48.019531 68.417969 47.542969 68.730469 C 47.066406 69.042969 46.578125 69.332031 46.074219 69.597656 C 45.566406 69.863281 45.050781 70.105469 44.523438 70.320312 C 43.992188 70.535156 43.457031 70.726562 42.90625 70.886719 C 42.359375 71.050781 41.804688 71.1875 41.242188 71.296875 C 40.683594 71.40625 40.117188 71.492188 39.546875 71.546875 C 38.976562 71.601562 38.40625 71.628906 37.835938 71.628906 C 37.261719 71.628906 36.691406 71.601562 36.121094 71.546875 C 35.550781 71.492188 34.988281 71.40625 34.425781 71.296875 C 33.863281 71.1875 33.308594 71.050781 32.761719 70.886719 C 32.214844 70.726562 31.675781 70.535156 31.148438 70.320312 C 30.617188 70.105469 30.101562 69.863281 29.597656 69.597656 C 29.09375 69.332031 28.601562 69.042969 28.125 68.730469 C 27.652344 68.417969 27.191406 68.082031 26.75 67.726562 C 26.308594 67.371094 25.882812 66.992188 25.480469 66.59375 C 25.074219 66.195312 24.691406 65.777344 24.328125 65.34375 C 23.964844 64.910156 23.625 64.457031 23.304688 63.988281 C 22.988281 63.519531 22.695312 63.039062 22.425781 62.542969 C 22.152344 62.046875 21.910156 61.539062 21.691406 61.015625 C 21.472656 60.496094 21.277344 59.96875 21.113281 59.429688 C 20.945312 58.890625 20.808594 58.34375 20.695312 57.792969 C 20.585938 57.242188 20.5 56.683594 20.445312 56.125 C 20.386719 55.5625 20.359375 55.003906 20.359375 54.441406 C 20.359375 53.875 20.386719 53.316406 20.445312 52.753906 C 20.5 52.195312 20.585938 51.636719 20.695312 51.085938 C 20.808594 50.535156 20.945312 49.988281 21.113281 49.449219 C 21.277344 48.910156 21.472656 48.382812 21.691406 47.863281 C 21.910156 47.339844 22.152344 46.832031 22.425781 46.335938 C 22.695312 45.839844 22.988281 45.359375 23.304688 44.890625 C 23.625 44.421875 23.964844 43.96875 24.328125 43.535156 C 24.691406 43.101562 25.074219 42.683594 25.480469 42.285156 C 25.882812 41.886719 26.308594 41.507812 26.75 41.152344 C 27.191406 40.796875 27.652344 40.460938 28.125 40.148438 C 28.601562 39.835938 29.09375 39.546875 29.597656 39.28125 C 30.101562 39.015625 30.617188 38.773438 31.148438 38.558594 C 31.675781 38.34375 32.214844 38.15625 32.761719 37.992188 C 33.308594 37.828125 33.863281 37.691406 34.425781 37.582031 C 34.988281 37.472656 35.550781 37.390625 36.121094 37.332031 C 36.691406 37.277344 37.261719 37.25 37.835938 37.25 C 38.40625 37.25 38.976562 37.277344 39.546875 37.332031 C 40.117188 37.390625 40.683594 37.472656 41.242188 37.582031 C 41.804688 37.691406 42.359375 37.828125 42.90625 37.992188 C 43.457031 38.15625 43.992188 38.34375 44.523438 38.558594 C 45.050781 38.773438 45.566406 39.015625 46.074219 39.28125 C 46.578125 39.546875 47.066406 39.835938 47.542969 40.148438 C 48.019531 40.460938 48.476562 40.796875 48.921875 41.152344 C 49.363281 41.507812 49.785156 41.886719 50.191406 42.285156 C 50.597656 42.683594 50.980469 43.101562 51.34375 43.535156 C 51.707031 43.96875 52.046875 44.421875 52.363281 44.890625 C 52.683594 45.359375 52.976562 45.839844 53.246094 46.335938 C 53.515625 46.832031 53.761719 47.339844 53.980469 47.863281 C 54.199219 48.382812 54.390625 48.910156 54.558594 49.449219 C 54.722656 49.988281 54.863281 50.535156 54.972656 51.085938 C 55.085938 51.636719 55.167969 52.195312 55.226562 52.753906 C 55.28125 53.316406 55.308594 53.875 55.308594 54.441406 Z M 55.308594 54.441406 "/>
</g>
<path style=" stroke:none;fill-rule:nonzero;fill:rgb(98.039246%,98.039246%,98.039246%);fill-opacity:1;" d="M 37.835938 65.378906 C 37.625 65.378906 37.421875 65.339844 37.226562 65.257812 C 37.03125 65.179688 36.859375 65.066406 36.710938 64.921875 C 36.5625 64.773438 36.449219 64.605469 36.367188 64.414062 C 36.285156 64.222656 36.246094 64.023438 36.246094 63.816406 L 36.246094 45.0625 C 36.246094 44.855469 36.285156 44.65625 36.367188 44.464844 C 36.449219 44.273438 36.5625 44.105469 36.710938 43.957031 C 36.859375 43.8125 37.03125 43.699219 37.226562 43.621094 C 37.421875 43.539062 37.625 43.5 37.835938 43.5 C 38.046875 43.5 38.25 43.539062 38.441406 43.621094 C 38.636719 43.699219 38.808594 43.8125 38.957031 43.957031 C 39.105469 44.105469 39.222656 44.273438 39.300781 44.464844 C 39.382812 44.65625 39.421875 44.855469 39.421875 45.0625 L 39.421875 63.816406 C 39.421875 64.023438 39.382812 64.222656 39.300781 64.414062 C 39.222656 64.605469 39.105469 64.773438 38.957031 64.921875 C 38.808594 65.066406 38.636719 65.179688 38.441406 65.257812 C 38.25 65.339844 38.046875 65.378906 37.835938 65.378906 Z M 37.835938 65.378906 "/>
<path style=" stroke:none;fill-rule:nonzero;fill:rgb(98.039246%,98.039246%,98.039246%);fill-opacity:1;" d="M 44.1875 52.875 C 43.75 52.878906 43.375 52.726562 43.066406 52.421875 L 37.835938 47.273438 L 32.605469 52.417969 C 32.457031 52.558594 32.285156 52.667969 32.089844 52.746094 C 31.898438 52.820312 31.695312 52.859375 31.488281 52.855469 C 31.28125 52.855469 31.078125 52.8125 30.886719 52.734375 C 30.695312 52.65625 30.527344 52.542969 30.378906 52.398438 C 30.230469 52.253906 30.117188 52.085938 30.035156 51.898438 C 29.957031 51.707031 29.914062 51.511719 29.914062 51.308594 C 29.910156 51.101562 29.949219 50.90625 30.027344 50.714844 C 30.101562 50.523438 30.214844 50.355469 30.359375 50.207031 L 36.714844 43.957031 C 36.863281 43.8125 37.035156 43.699219 37.230469 43.617188 C 37.421875 43.539062 37.625 43.5 37.835938 43.5 C 38.046875 43.5 38.25 43.539062 38.445312 43.617188 C 38.640625 43.699219 38.8125 43.8125 38.960938 43.957031 L 45.3125 50.207031 C 45.542969 50.429688 45.6875 50.699219 45.75 51.007812 C 45.8125 51.320312 45.78125 51.621094 45.660156 51.914062 C 45.535156 52.203125 45.339844 52.4375 45.074219 52.613281 C 44.804688 52.789062 44.511719 52.878906 44.1875 52.875 Z M 44.1875 52.875 "/>
<g clip-path="url(#clip5)" clip-rule="nonzero">
<path style="fill:none;stroke-width:1;stroke-linecap:round;stroke-linejoin:round;stroke:rgb(0%,0%,0%);stroke-opacity:1;stroke-miterlimit:4;" d="M 17.000587 17.500592 C 17.000587 17.828069 16.967391 18.153047 16.903459 18.475525 C 16.839526 18.798002 16.744856 19.11048 16.619449 19.412959 C 16.494043 19.716688 16.339129 20.005418 16.157166 20.277899 C 15.975203 20.550381 15.767422 20.802863 15.53505 21.035347 C 15.303909 21.267831 15.050636 21.475316 14.777692 21.657804 C 14.504749 21.840291 14.217051 21.99403 13.91337 22.119022 C 13.609689 22.245263 13.297402 22.340256 12.975279 22.404002 C 12.653156 22.467747 12.328574 22.500245 12.000303 22.500245 C 11.672033 22.500245 11.346222 22.467747 11.024099 22.404002 C 10.701976 22.340256 10.389688 22.245263 10.086008 22.119022 C 9.783556 21.99403 9.494629 21.840291 9.221685 21.657804 C 8.948741 21.475316 8.696698 21.267831 8.464327 21.035347 C 8.231956 20.802863 8.025404 20.550381 7.842212 20.277899 C 7.660249 20.005418 7.506564 19.716688 7.381158 19.412959 C 7.254522 19.11048 7.159852 18.798002 7.095919 18.475525 C 7.031986 18.153047 7.00002 17.828069 7.00002 17.500592 C 7.00002 17.171865 7.031986 16.846888 7.095919 16.52441 C 7.159852 16.201932 7.254522 15.889454 7.381158 15.586975 C 7.506564 15.283246 7.660249 14.994516 7.842212 14.722035 C 8.025404 14.449554 8.231956 14.197071 8.464327 13.964588 C 8.696698 13.732104 8.948741 13.524618 9.221685 13.342131 C 9.494629 13.159643 9.783556 13.005904 10.086008 12.880913 C 10.389688 12.754672 10.701976 12.659678 11.024099 12.595933 C 11.346222 12.532187 11.672033 12.499689 12.000303 12.499689 C 12.328574 12.499689 12.653156 12.532187 12.975279 12.595933 C 13.297402 12.659678 13.609689 12.754672 13.91337 12.880913 C 14.217051 13.005904 14.504749 13.159643 14.777692 13.342131 C 15.050636 13.524618 15.303909 13.732104 15.53505 13.964588 C 15.767422 14.197071 15.975203 14.449554 16.157166 14.722035 C 16.339129 14.994516 16.494043 15.283246 16.619449 15.586975 C 16.744856 15.889454 16.839526 16.201932 16.903459 16.52441 C 16.967391 16.846888 17.000587 17.171865 17.000587 17.500592 Z M 17.000587 17.500592 " transform="matrix(3.177163,0,0,3.125217,-0.290988,-0.25174)"/>
</g>
<g clip-path="url(#clip6)" clip-rule="nonzero">
<path style="fill:none;stroke-width:1;stroke-linecap:round;stroke-linejoin:round;stroke:rgb(0%,0%,0%);stroke-opacity:1;stroke-miterlimit:4;" d="M 4.99966 16.499412 L 3.00053 16.499412 C 2.868976 16.499412 2.738652 16.486913 2.609557 16.461914 C 2.480462 16.435666 2.356284 16.398169 2.234566 16.348172 C 2.112848 16.296926 1.998507 16.23568 1.889083 16.163185 C 1.77966 16.08944 1.678842 16.006946 1.585402 15.914452 C 1.493191 15.821959 1.409587 15.720716 1.337048 15.610723 C 1.264509 15.501981 1.203035 15.386989 1.152626 15.265747 C 1.102218 15.144506 1.064104 15.019514 1.038285 14.890773 C 1.012466 14.760782 1.000171 14.630791 1.000171 14.49955 L 1.000171 3.500314 C 1.000171 3.369073 1.012466 3.239082 1.038285 3.110341 C 1.064104 2.9816 1.102218 2.855359 1.152626 2.734117 C 1.203035 2.612875 1.264509 2.497883 1.337048 2.389141 C 1.409587 2.279149 1.493191 2.179156 1.585402 2.085412 C 1.678842 1.992919 1.77966 1.910424 1.889083 1.836679 C 1.998507 1.764184 2.112848 1.702939 2.234566 1.651692 C 2.356284 1.601696 2.480462 1.564198 2.609557 1.53795 C 2.738652 1.512952 2.868976 1.500453 3.00053 1.500453 L 21.000077 1.500453 C 21.131631 1.500453 21.261955 1.512952 21.389821 1.53795 C 21.518916 1.564198 21.644323 1.601696 21.764811 1.651692 C 21.88653 1.702939 22.0021 1.764184 22.111524 1.836679 C 22.219718 1.910424 22.321765 1.992919 22.413975 2.085412 C 22.507416 2.179156 22.589791 2.279149 22.66233 2.389141 C 22.736098 2.497883 22.797572 2.612875 22.847981 2.734117 C 22.898389 2.855359 22.936503 2.9816 22.961093 3.110341 C 22.986912 3.239082 23.000436 3.369073 23.000436 3.500314 L 23.000436 14.49955 C 23.000436 14.630791 22.986912 14.760782 22.961093 14.890773 C 22.936503 15.019514 22.898389 15.144506 22.847981 15.265747 C 22.797572 15.386989 22.736098 15.501981 22.66233 15.610723 C 22.589791 15.720716 22.507416 15.821959 22.413975 15.914452 C 22.321765 16.006946 22.219718 16.08944 22.111524 16.163185 C 22.0021 16.23568 21.88653 16.296926 21.764811 16.348172 C 21.644323 16.398169 21.518916 16.435666 21.389821 16.461914 C 21.261955 16.486913 21.131631 16.499412 21.000077 16.499412 L 18.999717 16.499412 " transform="matrix(3.177163,0,0,3.125217,-0.290988,-0.25174)"/>
</g>
<path style="fill:none;stroke-width:1;stroke-linecap:round;stroke-linejoin:round;stroke:rgb(0%,0%,0%);stroke-opacity:1;stroke-miterlimit:4;" d="M 3.00053 3.500314 L 10.769597 9.111174 C 10.9491 9.241165 11.143358 9.341159 11.353598 9.409904 C 11.563839 9.478649 11.778998 9.512397 12.000303 9.512397 C 12.221609 9.512397 12.437997 9.478649 12.648238 9.409904 C 12.858479 9.341159 13.052736 9.241165 13.23101 9.111174 L 21.000077 3.500314 " transform="matrix(3.177163,0,0,3.125217,-0.290988,-0.25174)"/>
<path style="fill:none;stroke-width:1;stroke-linecap:round;stroke-linejoin:round;stroke:rgb(0%,0%,0%);stroke-opacity:1;stroke-miterlimit:4;" d="M 3.00053 14.49955 L 7.999585 9.499897 " transform="matrix(3.177163,0,0,3.125217,-0.290988,-0.25174)"/>
<path style="fill:none;stroke-width:1;stroke-linecap:round;stroke-linejoin:round;stroke:rgb(0%,0%,0%);stroke-opacity:1;stroke-miterlimit:4;" d="M 21.000077 14.49955 L 15.999793 9.499897 " transform="matrix(3.177163,0,0,3.125217,-0.290988,-0.25174)"/>
</g>
</svg>
