<?xml version="1.0" encoding="UTF-8"?>
<svg xmlns="http://www.w3.org/2000/svg" xmlns:xlink="http://www.w3.org/1999/xlink" width="75pt" height="74.999997pt" viewBox="0 0 75 74.999997" version="1.2">
<defs>
<clipPath id="clip1">
  <path d="M 3.261719 5.707031 L 49.011719 5.707031 L 49.011719 51.457031 L 3.261719 51.457031 Z M 3.261719 5.707031 "/>
</clipPath>
<clipPath id="clip2">
  <path d="M 46.058594 21.425781 L 70 21.425781 L 70 68.675781 L 46.058594 68.675781 Z M 46.058594 21.425781 "/>
</clipPath>
<clipPath id="clip3">
  <path d="M 10.28125 11.359375 L 65.019531 11.359375 L 65.019531 63.859375 L 10.28125 63.859375 Z M 10.28125 11.359375 "/>
</clipPath>
<clipPath id="clip4">
  <path d="M 58.132812 64.074219 C 56.378906 64.074219 54.765625 63.179688 53.816406 61.6875 L 52.558594 59.691406 C 48.875 54.355469 44.28125 49.308594 38.554688 44.320312 C 38.246094 44.589844 37.933594 44.859375 37.613281 45.136719 C 32.414062 49.652344 26.523438 54.761719 24.21875 60.234375 L 24.191406 60.296875 C 24.164062 60.375 24.136719 60.445312 24.113281 60.507812 L 24.027344 60.730469 C 23.273438 62.699219 21.441406 63.96875 19.359375 63.96875 C 17.707031 63.96875 16.132812 63.191406 15.148438 61.882812 C 14.203125 60.628906 13.914062 59.027344 14.355469 57.496094 C 16.546875 49.609375 23.222656 42.953125 29.109375 37.078125 C 29.109375 37.078125 29.136719 37.050781 29.160156 37.027344 C 23.4375 42.746094 16.46875 49.902344 14.355469 57.496094 C 14.160156 58.167969 14.109375 58.855469 14.191406 59.519531 C 14.222656 59.242188 14.277344 58.96875 14.355469 58.699219 C 16.546875 50.8125 29.1875 38.199219 29.1875 38.199219 C 29.1875 38.199219 29.078125 37.714844 29.1875 37 C 23.796875 33.160156 18.824219 30.070312 14.039062 27.589844 L 13.984375 27.5625 C 11.101562 26.058594 9.726562 23.066406 10.496094 19.941406 C 11.285156 16.738281 14.125 14.410156 17.253906 14.410156 C 18.304688 14.410156 19.324219 14.65625 20.300781 15.140625 C 19.324219 14.65625 18.304688 14.410156 17.253906 14.410156 C 14.125 14.410156 11.285156 16.738281 10.496094 19.941406 C 10.300781 20.726562 10.246094 21.503906 10.3125 22.253906 C 10.34375 21.886719 10.402344 21.515625 10.496094 21.140625 C 11.285156 17.9375 14.125 15.609375 17.253906 15.609375 C 18.492188 15.609375 19.691406 15.953125 20.824219 16.628906 C 26.59375 20.082031 32.4375 24.269531 38.21875 29.089844 C 43 24.375 48.066406 19.597656 53.648438 14.539062 C 54.9375 13.371094 56.726562 12.554688 58.464844 12.554688 C 59.789062 12.554688 61.871094 13.234375 63.3125 14.792969 C 64.753906 16.351562 65.175781 17.933594 65.273438 19.058594 C 65.289062 18.855469 65.304688 18.582031 65.296875 18.253906 C 65.304688 18.585938 65.289062 18.863281 65.273438 19.066406 C 65.113281 20.980469 64.175781 22.753906 62.703125 23.929688 L 62.648438 23.972656 C 57.230469 28.265625 52.277344 32.347656 47.570312 36.386719 C 47.359375 36.570312 58.148438 48.847656 61.5625 55.292969 L 62.824219 57.59375 C 63.152344 58.199219 63.359375 58.839844 63.4375 59.488281 C 63.558594 58.457031 63.359375 57.386719 62.835938 56.417969 C 63.710938 58.03125 63.6875 59.910156 62.769531 61.449219 C 61.808594 63.066406 60.03125 64.074219 58.132812 64.074219 M 62.835938 56.414062 C 62.835938 56.414062 62.832031 56.414062 62.832031 56.410156 C 62.832031 56.414062 62.835938 56.414062 62.835938 56.414062 M 62.832031 56.410156 C 62.832031 56.410156 62.832031 56.40625 62.828125 56.40625 C 62.832031 56.40625 62.832031 56.410156 62.832031 56.410156 M 62.828125 56.40625 C 62.828125 56.402344 62.828125 56.402344 62.828125 56.402344 C 62.828125 56.402344 62.828125 56.402344 62.828125 56.40625 M 62.824219 56.398438 C 62.824219 56.398438 62.824219 56.394531 62.824219 56.394531 C 62.824219 56.394531 62.824219 56.398438 62.824219 56.398438 M 38.21875 27.890625 C 35.675781 25.769531 33.117188 23.769531 30.558594 21.902344 C 33.117188 23.769531 35.671875 25.769531 38.21875 27.890625 C 43 23.175781 48.066406 18.398438 53.648438 13.335938 C 54.9375 12.171875 56.726562 11.355469 58.464844 11.355469 C 56.726562 11.355469 54.9375 12.171875 53.648438 13.335938 C 48.066406 18.398438 43 23.175781 38.21875 27.890625 M 65.296875 18.253906 C 65.296875 18.25 65.296875 18.25 65.296875 18.25 C 65.296875 18.25 65.296875 18.25 65.296875 18.253906 M 63.320312 13.601562 L 63.320312 13.601562 "/>
</clipPath>
<clipPath id="clip5">
  <path d="M 58.132812 64.074219 C 56.378906 64.074219 54.765625 63.179688 53.816406 61.6875 L 52.558594 59.691406 C 48.875 54.355469 44.28125 49.308594 38.554688 44.320312 C 38.246094 44.589844 37.933594 44.859375 37.613281 45.136719 C 32.414062 49.652344 26.523438 54.761719 24.21875 60.234375 L 24.191406 60.296875 C 24.164062 60.375 24.136719 60.445312 24.113281 60.507812 L 24.027344 60.730469 C 23.273438 62.699219 21.441406 63.96875 19.359375 63.96875 C 17.707031 63.96875 16.132812 63.191406 15.148438 61.882812 C 14.203125 60.628906 13.914062 59.027344 14.355469 57.496094 C 16.546875 49.609375 23.222656 42.953125 29.109375 37.078125 C 29.109375 37.078125 29.136719 37.050781 29.160156 37.027344 C 23.4375 42.746094 16.46875 49.902344 14.355469 57.496094 C 14.160156 58.167969 14.109375 58.855469 14.191406 59.519531 C 14.222656 59.242188 14.277344 58.96875 14.355469 58.699219 C 16.546875 50.8125 29.1875 38.199219 29.1875 38.199219 C 29.1875 38.199219 29.078125 37.714844 29.1875 37 C 23.796875 33.160156 18.824219 30.070312 14.039062 27.589844 L 13.984375 27.5625 C 11.101562 26.058594 9.726562 23.066406 10.496094 19.941406 C 11.285156 16.738281 14.125 14.410156 17.253906 14.410156 C 18.304688 14.410156 19.324219 14.65625 20.300781 15.140625 C 19.324219 14.65625 18.304688 14.410156 17.253906 14.410156 C 14.125 14.410156 11.285156 16.738281 10.496094 19.941406 C 10.300781 20.726562 10.246094 21.503906 10.3125 22.253906 C 10.34375 21.886719 10.402344 21.515625 10.496094 21.140625 C 11.285156 17.9375 14.125 15.609375 17.253906 15.609375 C 18.492188 15.609375 19.691406 15.953125 20.824219 16.628906 C 26.59375 20.082031 32.4375 24.269531 38.21875 29.089844 C 43 24.375 48.066406 19.597656 53.648438 14.539062 C 54.9375 13.371094 56.726562 12.554688 58.464844 12.554688 C 59.789062 12.554688 61.871094 13.234375 63.3125 14.792969 C 64.753906 16.351562 65.175781 17.933594 65.273438 19.058594 C 65.289062 18.855469 65.304688 18.582031 65.296875 18.253906 C 65.304688 18.585938 65.289062 18.863281 65.273438 19.066406 C 65.113281 20.980469 64.175781 22.753906 62.703125 23.929688 L 62.648438 23.972656 C 57.230469 28.265625 52.277344 32.347656 47.570312 36.386719 C 47.359375 36.570312 58.148438 48.847656 61.5625 55.292969 L 62.824219 57.59375 C 63.152344 58.199219 63.359375 58.839844 63.4375 59.488281 C 63.558594 58.457031 63.359375 57.386719 62.835938 56.417969 C 63.710938 58.03125 63.6875 59.910156 62.769531 61.449219 C 61.808594 63.066406 60.03125 64.074219 58.132812 64.074219 M 62.835938 56.414062 C 62.835938 56.414062 62.832031 56.414062 62.832031 56.410156 C 62.832031 56.414062 62.835938 56.414062 62.835938 56.414062 M 62.832031 56.410156 C 62.832031 56.410156 62.832031 56.40625 62.828125 56.40625 C 62.832031 56.40625 62.832031 56.410156 62.832031 56.410156 M 62.828125 56.40625 C 62.828125 56.402344 62.828125 56.402344 62.828125 56.402344 C 62.828125 56.402344 62.828125 56.402344 62.828125 56.40625 M 62.824219 56.398438 C 62.824219 56.398438 62.824219 56.394531 62.824219 56.394531 C 62.824219 56.394531 62.824219 56.398438 62.824219 56.398438 M 38.21875 27.890625 C 35.675781 25.769531 33.117188 23.769531 30.558594 21.902344 C 33.117188 23.769531 35.671875 25.769531 38.21875 27.890625 C 43 23.175781 48.066406 18.398438 53.648438 13.335938 C 54.9375 12.171875 56.726562 11.355469 58.464844 11.355469 C 56.726562 11.355469 54.9375 12.171875 53.648438 13.335938 C 48.066406 18.398438 43 23.175781 38.21875 27.890625 M 65.296875 18.253906 C 65.296875 18.25 65.296875 18.25 65.296875 18.25 C 65.296875 18.25 65.296875 18.25 65.296875 18.253906 M 63.320312 13.601562 L 63.320312 13.601562 "/>
</clipPath>
<clipPath id="clip6">
  <path d="M 23.925781 -12.832031 L -13.316406 50.605469 L 51.105469 88.257812 L 88.347656 24.824219 Z M 23.925781 -12.832031 "/>
</clipPath>
<linearGradient id="linear0" gradientUnits="userSpaceOnUse" x1="-0.342403" y1="0" x2="0.765502" y2="0" gradientTransform="matrix(57.499845,33.607318,-33.682368,57.371725,25.806173,29.955656)">
<stop offset="0" style="stop-color:rgb(92.89856%,10.998535%,14.099121%);stop-opacity:1;"/>
<stop offset="0.25" style="stop-color:rgb(92.89856%,10.998535%,14.099121%);stop-opacity:1;"/>
<stop offset="0.3125" style="stop-color:rgb(92.89856%,10.998535%,14.099121%);stop-opacity:1;"/>
<stop offset="0.320312" style="stop-color:rgb(92.814636%,10.998535%,14.099121%);stop-opacity:1;"/>
<stop offset="0.328125" style="stop-color:rgb(92.614746%,10.998535%,14.099121%);stop-opacity:1;"/>
<stop offset="0.34375" style="stop-color:rgb(92.349243%,10.998535%,14.099121%);stop-opacity:1;"/>
<stop offset="0.359375" style="stop-color:rgb(92.124939%,10.998535%,14.024353%);stop-opacity:1;"/>
<stop offset="0.375" style="stop-color:rgb(91.86554%,10.939026%,13.824463%);stop-opacity:1;"/>
<stop offset="0.390625" style="stop-color:rgb(91.487122%,10.739136%,13.699341%);stop-opacity:1;"/>
<stop offset="0.40625" style="stop-color:rgb(91.146851%,10.598755%,13.699341%);stop-opacity:1;"/>
<stop offset="0.421875" style="stop-color:rgb(90.977478%,10.598755%,13.699341%);stop-opacity:1;"/>
<stop offset="0.4375" style="stop-color:rgb(90.777588%,10.598755%,13.699341%);stop-opacity:1;"/>
<stop offset="0.445312" style="stop-color:rgb(90.551758%,10.598755%,13.699341%);stop-opacity:1;"/>
<stop offset="0.453125" style="stop-color:rgb(90.351868%,10.598755%,13.699341%);stop-opacity:1;"/>
<stop offset="0.460937" style="stop-color:rgb(90.16571%,10.598755%,13.699341%);stop-opacity:1;"/>
<stop offset="0.46875" style="stop-color:rgb(89.96582%,10.598755%,13.699341%);stop-opacity:1;"/>
<stop offset="0.476562" style="stop-color:rgb(89.776611%,10.598755%,13.676453%);stop-opacity:1;"/>
<stop offset="0.484375" style="stop-color:rgb(89.576721%,10.598755%,13.476562%);stop-opacity:1;"/>
<stop offset="0.492187" style="stop-color:rgb(89.369202%,10.598755%,13.299561%);stop-opacity:1;"/>
<stop offset="0.5" style="stop-color:rgb(89.169312%,10.598755%,13.299561%);stop-opacity:1;"/>
<stop offset="0.515625" style="stop-color:rgb(88.987732%,10.588074%,13.299561%);stop-opacity:1;"/>
<stop offset="0.523437" style="stop-color:rgb(88.787842%,10.388184%,13.299561%);stop-opacity:1;"/>
<stop offset="0.53125" style="stop-color:rgb(88.577271%,10.198975%,13.299561%);stop-opacity:1;"/>
<stop offset="0.546875" style="stop-color:rgb(88.371277%,10.198975%,13.299561%);stop-opacity:1;"/>
<stop offset="0.5625" style="stop-color:rgb(87.992859%,10.198975%,13.299561%);stop-opacity:1;"/>
<stop offset="0.578125" style="stop-color:rgb(87.649536%,10.198975%,13.294983%);stop-opacity:1;"/>
<stop offset="0.585937" style="stop-color:rgb(87.5%,10.198975%,13.098145%);stop-opacity:1;"/>
<stop offset="0.59375" style="stop-color:rgb(87.309265%,10.198975%,12.902832%);stop-opacity:1;"/>
<stop offset="0.609375" style="stop-color:rgb(87.109375%,10.198975%,12.89978%);stop-opacity:1;"/>
<stop offset="0.625" style="stop-color:rgb(86.911011%,10.198975%,12.89978%);stop-opacity:1;"/>
<stop offset="0.640625" style="stop-color:rgb(86.538696%,10.198975%,12.89978%);stop-opacity:1;"/>
<stop offset="0.648437" style="stop-color:rgb(86.326599%,10.198975%,12.89978%);stop-opacity:1;"/>
<stop offset="0.65625" style="stop-color:rgb(86.114502%,10.198975%,12.89978%);stop-opacity:1;"/>
<stop offset="0.671875" style="stop-color:rgb(85.914612%,10.028076%,12.89978%);stop-opacity:1;"/>
<stop offset="0.679687" style="stop-color:rgb(85.736084%,9.828186%,12.89978%);stop-opacity:1;"/>
<stop offset="0.6875" style="stop-color:rgb(85.536194%,9.799194%,12.89978%);stop-opacity:1;"/>
<stop offset="0.695312" style="stop-color:rgb(85.328674%,9.799194%,12.89978%);stop-opacity:1;"/>
<stop offset="0.703125" style="stop-color:rgb(85.128784%,9.799194%,12.731934%);stop-opacity:1;"/>
<stop offset="0.710937" style="stop-color:rgb(84.939575%,9.799194%,12.532043%);stop-opacity:1;"/>
<stop offset="0.71875" style="stop-color:rgb(84.738159%,9.799194%,12.5%);stop-opacity:1;"/>
<stop offset="0.734375" style="stop-color:rgb(84.539795%,9.799194%,12.5%);stop-opacity:1;"/>
<stop offset="0.75" style="stop-color:rgb(84.188843%,9.799194%,12.5%);stop-opacity:1;"/>
<stop offset="0.765625" style="stop-color:rgb(83.947754%,9.799194%,12.5%);stop-opacity:1;"/>
<stop offset="0.78125" style="stop-color:rgb(83.750916%,9.799194%,12.5%);stop-opacity:1;"/>
<stop offset="0.796875" style="stop-color:rgb(83.418274%,9.799194%,12.5%);stop-opacity:1;"/>
<stop offset="0.8125" style="stop-color:rgb(83.045959%,9.67865%,12.409973%);stop-opacity:1;"/>
<stop offset="0.828125" style="stop-color:rgb(82.778931%,9.47876%,12.258911%);stop-opacity:1;"/>
<stop offset="0.84375" style="stop-color:rgb(82.548523%,9.399414%,12.199402%);stop-opacity:1;"/>
<stop offset="0.851562" style="stop-color:rgb(82.289124%,9.399414%,12.199402%);stop-opacity:1;"/>
<stop offset="0.859375" style="stop-color:rgb(82.089233%,9.399414%,12.199402%);stop-opacity:1;"/>
<stop offset="0.867188" style="stop-color:rgb(81.878662%,9.399414%,12.199402%);stop-opacity:1;"/>
<stop offset="0.875" style="stop-color:rgb(81.678772%,9.399414%,12.199402%);stop-opacity:1;"/>
<stop offset="0.890625" style="stop-color:rgb(81.498718%,9.399414%,12.199402%);stop-opacity:1;"/>
<stop offset="0.90625" style="stop-color:rgb(81.298828%,9.399414%,12.199402%);stop-opacity:1;"/>
<stop offset="0.921875" style="stop-color:rgb(81.10199%,9.399414%,12.199402%);stop-opacity:1;"/>
<stop offset="0.929688" style="stop-color:rgb(80.9021%,9.399414%,12.109375%);stop-opacity:1;"/>
<stop offset="0.9375" style="stop-color:rgb(80.715942%,9.399414%,11.909485%);stop-opacity:1;"/>
<stop offset="0.945312" style="stop-color:rgb(80.516052%,9.399414%,11.799622%);stop-opacity:1;"/>
<stop offset="0.953125" style="stop-color:rgb(80.303955%,9.30481%,11.799622%);stop-opacity:1;"/>
<stop offset="0.96875" style="stop-color:rgb(80.024719%,9.104919%,11.799622%);stop-opacity:1;"/>
<stop offset="0.984375" style="stop-color:rgb(79.718018%,8.999634%,11.799622%);stop-opacity:1;"/>
<stop offset="0.992188" style="stop-color:rgb(79.515076%,8.999634%,11.799622%);stop-opacity:1;"/>
<stop offset="1" style="stop-color:rgb(79.315186%,8.999634%,11.799622%);stop-opacity:1;"/>
</linearGradient>
<clipPath id="clip7">
  <path d="M 47.542969 36.339844 L 63.585938 36.339844 L 63.585938 59.578125 L 47.542969 59.578125 Z M 47.542969 36.339844 "/>
</clipPath>
<clipPath id="clip8">
  <path d="M 63.4375 59.488281 C 63.359375 58.839844 63.152344 58.199219 62.824219 57.59375 L 61.5625 55.292969 C 58.148438 48.847656 47.359375 36.570312 47.570312 36.386719 C 53.277344 42.121094 57.867188 47.933594 61.5625 54.09375 L 62.824219 56.394531 C 62.824219 56.394531 62.824219 56.398438 62.824219 56.398438 C 62.828125 56.398438 62.828125 56.398438 62.828125 56.402344 C 62.828125 56.402344 62.828125 56.402344 62.828125 56.40625 C 62.832031 56.40625 62.832031 56.410156 62.832031 56.410156 C 62.832031 56.414062 62.835938 56.414062 62.835938 56.414062 C 62.835938 56.417969 62.835938 56.417969 62.835938 56.417969 C 63.359375 57.386719 63.558594 58.457031 63.4375 59.488281 "/>
</clipPath>
<clipPath id="clip9">
  <path d="M 63.4375 59.488281 C 63.359375 58.839844 63.152344 58.199219 62.824219 57.59375 L 61.5625 55.292969 C 58.148438 48.847656 47.359375 36.570312 47.570312 36.386719 C 53.277344 42.121094 57.867188 47.933594 61.5625 54.09375 L 62.824219 56.394531 C 62.824219 56.394531 62.824219 56.398438 62.824219 56.398438 C 62.828125 56.398438 62.828125 56.398438 62.828125 56.402344 C 62.828125 56.402344 62.828125 56.402344 62.828125 56.40625 C 62.832031 56.40625 62.832031 56.410156 62.832031 56.410156 C 62.832031 56.414062 62.835938 56.414062 62.835938 56.414062 C 62.835938 56.417969 62.835938 56.417969 62.835938 56.417969 C 63.359375 57.386719 63.558594 58.457031 63.4375 59.488281 "/>
</clipPath>
<clipPath id="clip10">
  <path d="M 51.496094 29.335938 L 37.261719 53.585938 L 59.421875 66.535156 L 73.65625 42.289062 Z M 51.496094 29.335938 "/>
</clipPath>
<linearGradient id="linear1" gradientUnits="userSpaceOnUse" x1="0.330348" y1="0" x2="0.713332" y2="0" gradientTransform="matrix(57.499845,33.607318,-33.682368,57.371725,25.806173,29.955656)">
<stop offset="0" style="stop-color:rgb(51.399231%,13.699341%,13.299561%);stop-opacity:1;"/>
<stop offset="0.0625" style="stop-color:rgb(51.382446%,13.699341%,13.28125%);stop-opacity:1;"/>
<stop offset="0.125" style="stop-color:rgb(51.182556%,13.699341%,13.08136%);stop-opacity:1;"/>
<stop offset="0.15625" style="stop-color:rgb(50.964355%,13.699341%,12.89978%);stop-opacity:1;"/>
<stop offset="0.1875" style="stop-color:rgb(50.764465%,13.684082%,12.89978%);stop-opacity:1;"/>
<stop offset="0.25" style="stop-color:rgb(50.567627%,13.484192%,12.89978%);stop-opacity:1;"/>
<stop offset="0.375" style="stop-color:rgb(50.341797%,13.299561%,12.872314%);stop-opacity:1;"/>
<stop offset="0.4375" style="stop-color:rgb(49.972534%,13.299561%,12.672424%);stop-opacity:1;"/>
<stop offset="0.5" style="stop-color:rgb(49.775696%,13.299561%,12.5%);stop-opacity:1;"/>
<stop offset="0.5625" style="stop-color:rgb(49.575806%,13.290405%,12.5%);stop-opacity:1;"/>
<stop offset="0.625" style="stop-color:rgb(49.380493%,13.090515%,12.5%);stop-opacity:1;"/>
<stop offset="0.6875" style="stop-color:rgb(49.1745%,12.89978%,12.493896%);stop-opacity:1;"/>
<stop offset="0.75" style="stop-color:rgb(48.79303%,12.89978%,12.34436%);stop-opacity:1;"/>
<stop offset="0.78125" style="stop-color:rgb(48.583984%,12.89978%,12.199402%);stop-opacity:1;"/>
<stop offset="0.8125" style="stop-color:rgb(48.384094%,12.89978%,12.199402%);stop-opacity:1;"/>
<stop offset="0.875" style="stop-color:rgb(48.199463%,12.89978%,12.199402%);stop-opacity:1;"/>
<stop offset="0.9375" style="stop-color:rgb(48.196411%,12.896729%,12.199402%);stop-opacity:1;"/>
<stop offset="0.96875" style="stop-color:rgb(48.094177%,12.794495%,12.199402%);stop-opacity:1;"/>
<stop offset="1" style="stop-color:rgb(47.895813%,12.59613%,12.199402%);stop-opacity:1;"/>
</linearGradient>
<clipPath id="clip11">
  <path d="M 20 11.359375 L 65.019531 11.359375 L 65.019531 22 L 20 22 Z M 20 11.359375 "/>
</clipPath>
<clipPath id="clip12">
  <path d="M 10.28125 11.359375 L 65.019531 11.359375 L 65.019531 29.109375 L 10.28125 29.109375 Z M 10.28125 11.359375 "/>
</clipPath>
<clipPath id="clip13">
  <path d="M 38.21875 29.089844 C 32.4375 24.269531 26.59375 20.082031 20.824219 16.628906 C 19.691406 15.953125 18.492188 15.609375 17.253906 15.609375 C 14.125 15.609375 11.285156 17.9375 10.496094 21.140625 C 10.402344 21.515625 10.34375 21.886719 10.3125 22.253906 C 10.246094 21.503906 10.300781 20.726562 10.496094 19.941406 C 11.285156 16.738281 14.125 14.410156 17.253906 14.410156 C 18.304688 14.410156 19.324219 14.65625 20.300781 15.140625 C 20.476562 15.226562 20.648438 15.324219 20.824219 15.425781 C 24.054688 17.363281 27.304688 19.527344 30.558594 21.902344 C 33.117188 23.769531 35.675781 25.769531 38.21875 27.890625 C 43 23.175781 48.066406 18.398438 53.648438 13.335938 C 54.9375 12.171875 56.726562 11.355469 58.464844 11.355469 C 59.789062 11.355469 61.871094 12.035156 63.3125 13.59375 C 63.316406 13.597656 63.316406 13.597656 63.320312 13.601562 C 64.933594 15.351562 65.261719 17.125 65.296875 18.25 C 65.296875 18.25 65.296875 18.25 65.296875 18.253906 C 65.304688 18.582031 65.289062 18.855469 65.273438 19.058594 C 65.175781 17.933594 64.753906 16.351562 63.3125 14.792969 C 61.871094 13.234375 59.789062 12.554688 58.464844 12.554688 C 56.726562 12.554688 54.9375 13.371094 53.648438 14.539062 C 48.066406 19.597656 43 24.375 38.21875 29.089844 "/>
</clipPath>
<clipPath id="clip14">
  <path d="M 38.21875 29.089844 C 32.4375 24.269531 26.59375 20.082031 20.824219 16.628906 C 19.691406 15.953125 18.492188 15.609375 17.253906 15.609375 C 14.125 15.609375 11.285156 17.9375 10.496094 21.140625 C 10.402344 21.515625 10.34375 21.886719 10.3125 22.253906 C 10.246094 21.503906 10.300781 20.726562 10.496094 19.941406 C 11.285156 16.738281 14.125 14.410156 17.253906 14.410156 C 18.304688 14.410156 19.324219 14.65625 20.300781 15.140625 C 20.476562 15.226562 20.648438 15.324219 20.824219 15.425781 C 24.054688 17.363281 27.304688 19.527344 30.558594 21.902344 C 33.117188 23.769531 35.675781 25.769531 38.21875 27.890625 C 43 23.175781 48.066406 18.398438 53.648438 13.335938 C 54.9375 12.171875 56.726562 11.355469 58.464844 11.355469 C 59.789062 11.355469 61.871094 12.035156 63.3125 13.59375 C 63.316406 13.597656 63.316406 13.597656 63.320312 13.601562 C 64.933594 15.351562 65.261719 17.125 65.296875 18.25 C 65.296875 18.25 65.296875 18.25 65.296875 18.253906 C 65.304688 18.582031 65.289062 18.855469 65.273438 19.058594 C 65.175781 17.933594 64.753906 16.351562 63.3125 14.792969 C 61.871094 13.234375 59.789062 12.554688 58.464844 12.554688 C 56.726562 12.554688 54.9375 13.371094 53.648438 14.539062 C 48.066406 19.597656 43 24.375 38.21875 29.089844 "/>
</clipPath>
<clipPath id="clip15">
  <path d="M 24.3125 -12.605469 L 2.492188 24.558594 L 51.238281 53.050781 L 73.058594 15.886719 Z M 24.3125 -12.605469 "/>
</clipPath>
<linearGradient id="linear2" gradientUnits="userSpaceOnUse" x1="-0.342403" y1="0" x2="0.501186" y2="0" gradientTransform="matrix(57.499845,33.607318,-33.682368,57.371725,25.806173,29.955656)">
<stop offset="0" style="stop-color:rgb(54.899597%,14.898682%,14.099121%);stop-opacity:1;"/>
<stop offset="0.25" style="stop-color:rgb(54.899597%,14.898682%,14.099121%);stop-opacity:1;"/>
<stop offset="0.375" style="stop-color:rgb(54.899597%,14.898682%,14.099121%);stop-opacity:1;"/>
<stop offset="0.40625" style="stop-color:rgb(54.899597%,14.898682%,14.099121%);stop-opacity:1;"/>
<stop offset="0.421875" style="stop-color:rgb(54.719543%,14.898682%,14.099121%);stop-opacity:1;"/>
<stop offset="0.4375" style="stop-color:rgb(54.519653%,14.724731%,14.099121%);stop-opacity:1;"/>
<stop offset="0.46875" style="stop-color:rgb(54.312134%,14.524841%,14.099121%);stop-opacity:1;"/>
<stop offset="0.5" style="stop-color:rgb(53.935242%,14.498901%,14.099121%);stop-opacity:1;"/>
<stop offset="0.53125" style="stop-color:rgb(53.721619%,14.498901%,13.909912%);stop-opacity:1;"/>
<stop offset="0.5625" style="stop-color:rgb(53.515625%,14.498901%,13.710022%);stop-opacity:1;"/>
<stop offset="0.59375" style="stop-color:rgb(53.315735%,14.498901%,13.699341%);stop-opacity:1;"/>
<stop offset="0.609375" style="stop-color:rgb(53.126526%,14.326477%,13.699341%);stop-opacity:1;"/>
<stop offset="0.625" style="stop-color:rgb(52.926636%,14.126587%,13.699341%);stop-opacity:1;"/>
<stop offset="0.65625" style="stop-color:rgb(52.714539%,14.099121%,13.699341%);stop-opacity:1;"/>
<stop offset="0.671875" style="stop-color:rgb(52.514648%,14.099121%,13.536072%);stop-opacity:1;"/>
<stop offset="0.6875" style="stop-color:rgb(52.380371%,14.099121%,13.336182%);stop-opacity:1;"/>
<stop offset="0.71875" style="stop-color:rgb(52.230835%,14.099121%,13.299561%);stop-opacity:1;"/>
<stop offset="0.734375" style="stop-color:rgb(52.035522%,14.099121%,13.299561%);stop-opacity:1;"/>
<stop offset="0.75" style="stop-color:rgb(51.835632%,13.938904%,13.299561%);stop-opacity:1;"/>
<stop offset="0.78125" style="stop-color:rgb(51.64032%,13.739014%,13.299561%);stop-opacity:1;"/>
<stop offset="0.8125" style="stop-color:rgb(51.44043%,13.699341%,13.299561%);stop-opacity:1;"/>
<stop offset="0.84375" style="stop-color:rgb(51.223755%,13.699341%,13.124084%);stop-opacity:1;"/>
<stop offset="0.875" style="stop-color:rgb(50.872803%,13.699341%,12.924194%);stop-opacity:1;"/>
<stop offset="0.90625" style="stop-color:rgb(50.646973%,13.523865%,12.89978%);stop-opacity:1;"/>
<stop offset="0.921875" style="stop-color:rgb(50.45166%,13.323975%,12.89978%);stop-opacity:1;"/>
<stop offset="0.9375" style="stop-color:rgb(50.25177%,13.299561%,12.89978%);stop-opacity:1;"/>
<stop offset="0.96875" style="stop-color:rgb(50.056458%,13.299561%,12.756348%);stop-opacity:1;"/>
<stop offset="1" style="stop-color:rgb(49.856567%,13.299561%,12.556458%);stop-opacity:1;"/>
</linearGradient>
<clipPath id="clip16">
  <path d="M 14.03125 37 L 29.300781 37 L 29.300781 59.578125 L 14.03125 59.578125 Z M 14.03125 37 "/>
</clipPath>
<clipPath id="clip17">
  <path d="M 14.191406 59.519531 C 14.109375 58.855469 14.160156 58.167969 14.355469 57.496094 C 16.46875 49.902344 23.4375 42.746094 29.160156 37.027344 C 29.171875 37.015625 29.183594 37.003906 29.1875 37 C 29.078125 37.714844 29.1875 38.199219 29.1875 38.199219 C 29.1875 38.199219 16.546875 50.8125 14.355469 58.699219 C 14.277344 58.96875 14.222656 59.242188 14.191406 59.519531 "/>
</clipPath>
<clipPath id="clip18">
  <path d="M 14.191406 59.519531 C 14.109375 58.855469 14.160156 58.167969 14.355469 57.496094 C 16.46875 49.902344 23.4375 42.746094 29.160156 37.027344 C 29.171875 37.015625 29.183594 37.003906 29.1875 37 C 29.078125 37.714844 29.1875 38.199219 29.1875 38.199219 C 29.1875 38.199219 16.546875 50.8125 14.355469 58.699219 C 14.277344 58.96875 14.222656 59.242188 14.191406 59.519531 "/>
</clipPath>
<clipPath id="clip19">
  <path d="M 17.960938 30.441406 L 4.265625 53.765625 L 25.335938 66.078125 L 39.027344 42.753906 Z M 17.960938 30.441406 "/>
</clipPath>
<linearGradient id="linear3" gradientUnits="userSpaceOnUse" x1="-0.0979132" y1="0" x2="0.268495" y2="0" gradientTransform="matrix(57.499845,33.607318,-33.682368,57.371725,25.806173,29.955656)">
<stop offset="0" style="stop-color:rgb(54.899597%,14.898682%,14.099121%);stop-opacity:1;"/>
<stop offset="0.25" style="stop-color:rgb(54.89502%,14.898682%,14.099121%);stop-opacity:1;"/>
<stop offset="0.265625" style="stop-color:rgb(54.79126%,14.898682%,14.099121%);stop-opacity:1;"/>
<stop offset="0.28125" style="stop-color:rgb(54.594421%,14.898682%,14.099121%);stop-opacity:1;"/>
<stop offset="0.3125" style="stop-color:rgb(54.499817%,14.898682%,14.099121%);stop-opacity:1;"/>
<stop offset="0.34375" style="stop-color:rgb(54.499817%,14.797974%,14.099121%);stop-opacity:1;"/>
<stop offset="0.375" style="stop-color:rgb(54.496765%,14.598083%,14.099121%);stop-opacity:1;"/>
<stop offset="0.40625" style="stop-color:rgb(54.396057%,14.498901%,14.099121%);stop-opacity:1;"/>
<stop offset="0.4375" style="stop-color:rgb(54.196167%,14.498901%,14.099121%);stop-opacity:1;"/>
<stop offset="0.453125" style="stop-color:rgb(53.994751%,14.498901%,14.099121%);stop-opacity:1;"/>
<stop offset="0.46875" style="stop-color:rgb(53.796387%,14.498901%,14.099121%);stop-opacity:1;"/>
<stop offset="0.5" style="stop-color:rgb(53.69873%,14.498901%,14.096069%);stop-opacity:1;"/>
<stop offset="0.53125" style="stop-color:rgb(53.69873%,14.498901%,13.995361%);stop-opacity:1;"/>
<stop offset="0.5625" style="stop-color:rgb(53.697205%,14.498901%,13.796997%);stop-opacity:1;"/>
<stop offset="0.59375" style="stop-color:rgb(53.596497%,14.498901%,13.699341%);stop-opacity:1;"/>
<stop offset="0.625" style="stop-color:rgb(53.396606%,14.498901%,13.699341%);stop-opacity:1;"/>
<stop offset="0.6875" style="stop-color:rgb(53.29895%,14.498901%,13.699341%);stop-opacity:1;"/>
<stop offset="0.71875" style="stop-color:rgb(53.294373%,14.494324%,13.699341%);stop-opacity:1;"/>
<stop offset="0.75" style="stop-color:rgb(53.094482%,14.294434%,13.699341%);stop-opacity:1;"/>
<stop offset="0.8125" style="stop-color:rgb(52.894592%,14.099121%,13.699341%);stop-opacity:1;"/>
<stop offset="0.828125" style="stop-color:rgb(52.789307%,14.099121%,13.699341%);stop-opacity:1;"/>
<stop offset="0.84375" style="stop-color:rgb(52.593994%,14.099121%,13.699341%);stop-opacity:1;"/>
<stop offset="0.875" style="stop-color:rgb(52.496338%,14.099121%,13.694763%);stop-opacity:1;"/>
<stop offset="0.90625" style="stop-color:rgb(52.418518%,14.099121%,13.592529%);stop-opacity:1;"/>
<stop offset="0.9375" style="stop-color:rgb(52.270508%,14.099121%,13.395691%);stop-opacity:1;"/>
<stop offset="1" style="stop-color:rgb(52.198792%,14.099121%,13.299561%);stop-opacity:1;"/>
</linearGradient>
</defs>
<g id="surface1">
<g clip-path="url(#clip1)" clip-rule="nonzero">
<path style=" stroke:none;fill-rule:nonzero;fill:rgb(100%,75.689697%,2.749634%);fill-opacity:1;" d="M 48.082031 5.734375 L 20.316406 9.472656 C 19.914062 9.527344 19.613281 9.871094 19.613281 10.277344 L 19.613281 37.222656 C 19.613281 37.617188 19.417969 37.988281 19.097656 38.21875 C 18.773438 38.445312 18.355469 38.503906 17.980469 38.371094 C 16.824219 37.960938 15.5625 37.753906 14.257812 37.753906 C 13.511719 37.753906 12.75 37.824219 11.984375 37.957031 C 6.894531 38.855469 3.269531 42.515625 3.90625 46.117188 C 4.210938 47.832031 5.4375 49.289062 7.363281 50.21875 C 9.339844 51.171875 11.800781 51.457031 14.292969 51.015625 C 18.734375 50.230469 22.148438 47.316406 22.417969 44.082031 L 22.488281 21.640625 C 22.492188 21.042969 22.941406 20.53125 23.535156 20.449219 L 44.757812 17.59375 C 45.105469 17.546875 45.453125 17.652344 45.714844 17.882812 C 45.976562 18.109375 46.128906 18.441406 46.128906 18.789062 L 46.128906 36.238281 C 46.128906 36.632812 45.933594 37.003906 45.613281 37.230469 C 45.289062 37.460938 44.871094 37.519531 44.496094 37.386719 C 42.679688 36.742188 40.605469 36.601562 38.496094 36.972656 C 33.410156 37.871094 29.785156 41.53125 30.421875 45.132812 C 31.058594 48.730469 35.71875 50.929688 40.808594 50.03125 C 45.25 49.246094 48.664062 46.332031 48.933594 43.097656 L 49.003906 6.539062 C 49.003906 6.300781 48.90625 6.085938 48.726562 5.929688 C 48.546875 5.773438 48.320312 5.707031 48.082031 5.734375 "/>
</g>
<g clip-path="url(#clip2)" clip-rule="nonzero">
<path style=" stroke:none;fill-rule:nonzero;fill:rgb(12.939453%,58.81958%,95.289612%);fill-opacity:1;" d="M 51.289062 68.203125 C 47.828125 67.75 46.078125 64.265625 47.375 60.535156 C 48.679688 56.847656 52.457031 54.1875 55.898438 54.589844 C 56.851562 54.707031 57.699219 55.042969 58.394531 55.554688 C 58.011719 50.121094 57.640625 44.582031 57.234375 39.039062 C 56.820312 33.429688 56.441406 27.671875 56.113281 21.851562 C 56.113281 21.785156 56.164062 21.765625 56.191406 21.761719 C 56.722656 21.675781 57.246094 21.570312 57.820312 21.449219 C 57.851562 21.441406 57.902344 21.441406 57.871094 21.5 C 59.0625 26.800781 62.441406 30.617188 65.207031 34.40625 C 67.960938 38.179688 70.09375 41.949219 68.691406 47.015625 C 68.402344 48.066406 67.734375 49.851562 66.789062 51.386719 C 66.714844 51.5 66.535156 51.585938 66.4375 51.492188 C 66.277344 51.445312 66.261719 51.265625 66.261719 51.136719 C 66.742188 49.613281 67.328125 47.917969 67.433594 46.964844 C 67.644531 45.042969 67.636719 43.492188 67.28125 42.226562 C 65.765625 36.78125 60.539062 36.746094 58.625 33.667969 C 59.179688 41.984375 59.722656 50.167969 60.265625 58.1875 C 60.375 59.765625 60.507812 60.75 59.851562 62.441406 C 58.484375 66.101562 54.707031 68.636719 51.289062 68.203125 Z M 51.289062 68.203125 "/>
</g>
<g clip-path="url(#clip3)" clip-rule="nonzero">
<g clip-path="url(#clip4)" clip-rule="nonzero">
<g clip-path="url(#clip5)" clip-rule="nonzero">
<g clip-path="url(#clip6)" clip-rule="nonzero">
<path style=" stroke:none;fill-rule:nonzero;fill:url(#linear0);" d="M 24.265625 -12.460938 L -12.667969 50.449219 L 51.035156 87.679688 L 87.96875 24.773438 Z M 24.265625 -12.460938 "/>
</g>
</g>
</g>
</g>
<path style=" stroke:none;fill-rule:nonzero;fill:rgb(54.508972%,51.759338%,51.368713%);fill-opacity:1;" d="M 62.835938 56.417969 C 62.835938 56.417969 62.835938 56.417969 62.835938 56.414062 C 62.835938 56.417969 62.835938 56.417969 62.835938 56.417969 M 62.832031 56.410156 L 62.832031 56.410156 M 62.828125 56.40625 L 62.828125 56.40625 M 62.828125 56.402344 C 62.828125 56.398438 62.828125 56.398438 62.824219 56.398438 C 62.828125 56.398438 62.828125 56.398438 62.828125 56.402344 M 62.824219 56.394531 L 61.5625 54.09375 C 57.867188 47.933594 53.277344 42.121094 47.570312 36.386719 C 53.636719 42.449219 58.007812 48.164062 61.5625 54.09375 L 62.824219 56.394531 "/>
<g clip-path="url(#clip7)" clip-rule="nonzero">
<g clip-path="url(#clip8)" clip-rule="nonzero">
<g clip-path="url(#clip9)" clip-rule="nonzero">
<g clip-path="url(#clip10)" clip-rule="nonzero">
<path style=" stroke:none;fill-rule:nonzero;fill:url(#linear1);" d="M 51.632812 29.417969 L 37.445312 53.585938 L 59.46875 66.457031 L 73.65625 42.289062 Z M 51.632812 29.417969 "/>
</g>
</g>
</g>
</g>
<g clip-path="url(#clip11)" clip-rule="nonzero">
<path style=" stroke:none;fill-rule:nonzero;fill:rgb(54.508972%,51.759338%,51.368713%);fill-opacity:1;" d="M 30.558594 21.902344 C 27.304688 19.527344 24.054688 17.363281 20.824219 15.425781 C 20.648438 15.324219 20.476562 15.226562 20.300781 15.140625 C 20.476562 15.226562 20.648438 15.324219 20.824219 15.425781 C 24.054688 17.363281 27.304688 19.527344 30.558594 21.902344 M 65.296875 18.253906 L 65.296875 18.253906 M 65.296875 18.25 C 65.261719 17.125 64.933594 15.351562 63.320312 13.601562 C 64.933594 15.351562 65.261719 17.125 65.296875 18.25 M 63.320312 13.601562 C 63.316406 13.597656 63.316406 13.597656 63.3125 13.59375 C 63.316406 13.597656 63.316406 13.597656 63.320312 13.601562 M 63.3125 13.59375 C 61.871094 12.035156 59.789062 11.355469 58.464844 11.355469 C 59.789062 11.355469 61.871094 12.035156 63.3125 13.59375 "/>
</g>
<g clip-path="url(#clip12)" clip-rule="nonzero">
<g clip-path="url(#clip13)" clip-rule="nonzero">
<g clip-path="url(#clip14)" clip-rule="nonzero">
<g clip-path="url(#clip15)" clip-rule="nonzero">
<path style=" stroke:none;fill-rule:nonzero;fill:url(#linear2);" d="M 24.265625 -12.460938 L 2.53125 24.558594 L 51.035156 52.910156 L 72.769531 15.890625 Z M 24.265625 -12.460938 "/>
</g>
</g>
</g>
</g>
<path style=" stroke:none;fill-rule:nonzero;fill:rgb(54.508972%,51.759338%,51.368713%);fill-opacity:1;" d="M 29.160156 37.027344 C 29.167969 37.019531 29.175781 37.011719 29.1875 37 C 29.183594 37.003906 29.171875 37.015625 29.160156 37.027344 "/>
<g clip-path="url(#clip16)" clip-rule="nonzero">
<g clip-path="url(#clip17)" clip-rule="nonzero">
<g clip-path="url(#clip18)" clip-rule="nonzero">
<g clip-path="url(#clip19)" clip-rule="nonzero">
<path style=" stroke:none;fill-rule:nonzero;fill:url(#linear3);" d="M 17.960938 30.4375 L 4.265625 53.765625 L 25.335938 66.078125 L 39.027344 42.753906 Z M 17.960938 30.4375 "/>
</g>
</g>
</g>
</g>
</g>
</svg>
