<?xml version="1.0" encoding="UTF-8"?>
<svg xmlns="http://www.w3.org/2000/svg" xmlns:xlink="http://www.w3.org/1999/xlink" width="30pt" height="30.000001pt" viewBox="0 0 30 30.000001" version="1.2">
<defs>
<clipPath id="clip1">
  <path d="M 13 1.25 L 18 1.25 L 18 6 L 13 6 Z M 13 1.25 "/>
</clipPath>
<clipPath id="clip2">
  <path d="M 13 24 L 18 24 L 18 28.101562 L 13 28.101562 Z M 13 24 "/>
</clipPath>
<clipPath id="clip3">
  <path d="M 3.625 18 L 8 18 L 8 23 L 3.625 23 Z M 3.625 18 "/>
</clipPath>
<clipPath id="clip4">
  <path d="M 22 18 L 26.851562 18 L 26.851562 23 L 22 23 Z M 22 18 "/>
</clipPath>
<clipPath id="clip5">
  <path d="M 3.625 7 L 8 7 L 8 12 L 3.625 12 Z M 3.625 7 "/>
</clipPath>
<clipPath id="clip6">
  <path d="M 22 7 L 26.851562 7 L 26.851562 12 L 22 12 Z M 22 7 "/>
</clipPath>
<clipPath id="clip7">
  <path d="M 4 1.25 L 26.851562 1.25 L 26.851562 22 L 4 22 Z M 4 1.25 "/>
</clipPath>
</defs>
<g id="surface1">
<path style=" stroke:none;fill-rule:nonzero;fill:rgb(100%,25.099182%,50.588989%);fill-opacity:1;" d="M 15.367188 27.316406 L 4.832031 21.074219 L 4.832031 8.609375 L 15.367188 2.367188 L 25.898438 8.609375 L 25.898438 21.074219 Z M 6.035156 20.386719 L 15.367188 25.914062 L 24.695312 20.386719 L 24.695312 9.300781 L 15.367188 3.769531 L 6.035156 9.300781 Z M 6.035156 20.386719 "/>
<g clip-path="url(#clip1)" clip-rule="nonzero">
<path style=" stroke:none;fill-rule:nonzero;fill:rgb(100%,25.099182%,50.588989%);fill-opacity:1;" d="M 17.472656 3.371094 C 17.472656 3.648438 17.417969 3.917969 17.3125 4.179688 C 17.203125 4.4375 17.050781 4.664062 16.855469 4.863281 C 16.65625 5.0625 16.429688 5.214844 16.171875 5.320312 C 15.914062 5.429688 15.644531 5.484375 15.367188 5.484375 C 15.085938 5.484375 14.816406 5.429688 14.558594 5.320312 C 14.300781 5.214844 14.074219 5.0625 13.875 4.863281 C 13.679688 4.664062 13.527344 4.4375 13.417969 4.179688 C 13.3125 3.917969 13.257812 3.648438 13.257812 3.371094 C 13.257812 3.089844 13.3125 2.820312 13.417969 2.558594 C 13.527344 2.300781 13.679688 2.074219 13.875 1.875 C 14.074219 1.675781 14.300781 1.523438 14.558594 1.417969 C 14.816406 1.308594 15.085938 1.253906 15.367188 1.253906 C 15.644531 1.253906 15.914062 1.308594 16.171875 1.417969 C 16.429688 1.523438 16.65625 1.675781 16.855469 1.875 C 17.050781 2.074219 17.203125 2.300781 17.3125 2.558594 C 17.417969 2.820312 17.472656 3.089844 17.472656 3.371094 Z M 17.472656 3.371094 "/>
</g>
<g clip-path="url(#clip2)" clip-rule="nonzero">
<path style=" stroke:none;fill-rule:nonzero;fill:rgb(100%,25.099182%,50.588989%);fill-opacity:1;" d="M 17.472656 26.316406 C 17.472656 26.59375 17.417969 26.863281 17.3125 27.125 C 17.203125 27.382812 17.050781 27.609375 16.855469 27.808594 C 16.65625 28.007812 16.429688 28.160156 16.171875 28.265625 C 15.914062 28.375 15.644531 28.429688 15.367188 28.429688 C 15.085938 28.429688 14.816406 28.375 14.558594 28.265625 C 14.300781 28.160156 14.074219 28.007812 13.875 27.808594 C 13.679688 27.609375 13.527344 27.382812 13.417969 27.125 C 13.3125 26.863281 13.257812 26.59375 13.257812 26.316406 C 13.257812 26.035156 13.3125 25.765625 13.417969 25.507812 C 13.527344 25.246094 13.679688 25.019531 13.875 24.820312 C 14.074219 24.621094 14.300781 24.46875 14.558594 24.363281 C 14.816406 24.253906 15.085938 24.203125 15.367188 24.203125 C 15.644531 24.203125 15.914062 24.253906 16.171875 24.363281 C 16.429688 24.46875 16.65625 24.621094 16.855469 24.820312 C 17.050781 25.019531 17.203125 25.246094 17.3125 25.507812 C 17.417969 25.765625 17.472656 26.035156 17.472656 26.316406 Z M 17.472656 26.316406 "/>
</g>
<g clip-path="url(#clip3)" clip-rule="nonzero">
<path style=" stroke:none;fill-rule:nonzero;fill:rgb(100%,25.099182%,50.588989%);fill-opacity:1;" d="M 7.839844 20.277344 C 7.839844 20.558594 7.785156 20.828125 7.679688 21.085938 C 7.574219 21.34375 7.421875 21.574219 7.222656 21.769531 C 7.027344 21.96875 6.796875 22.121094 6.539062 22.230469 C 6.28125 22.335938 6.011719 22.390625 5.734375 22.390625 C 5.453125 22.390625 5.183594 22.335938 4.925781 22.230469 C 4.667969 22.121094 4.441406 21.96875 4.242188 21.769531 C 4.046875 21.574219 3.894531 21.34375 3.785156 21.085938 C 3.679688 20.828125 3.625 20.558594 3.625 20.277344 C 3.625 19.996094 3.679688 19.726562 3.785156 19.46875 C 3.894531 19.207031 4.046875 18.980469 4.242188 18.78125 C 4.441406 18.585938 4.667969 18.429688 4.925781 18.324219 C 5.183594 18.21875 5.453125 18.164062 5.734375 18.164062 C 6.011719 18.164062 6.28125 18.21875 6.539062 18.324219 C 6.796875 18.429688 7.027344 18.585938 7.222656 18.78125 C 7.421875 18.980469 7.574219 19.207031 7.679688 19.46875 C 7.785156 19.726562 7.839844 19.996094 7.839844 20.277344 Z M 7.839844 20.277344 "/>
</g>
<g clip-path="url(#clip4)" clip-rule="nonzero">
<path style=" stroke:none;fill-rule:nonzero;fill:rgb(100%,25.099182%,50.588989%);fill-opacity:1;" d="M 27.105469 20.277344 C 27.105469 20.558594 27.050781 20.828125 26.945312 21.085938 C 26.835938 21.34375 26.683594 21.574219 26.488281 21.769531 C 26.289062 21.96875 26.0625 22.121094 25.804688 22.230469 C 25.546875 22.335938 25.277344 22.390625 24.996094 22.390625 C 24.71875 22.390625 24.449219 22.335938 24.191406 22.230469 C 23.933594 22.121094 23.703125 21.96875 23.507812 21.769531 C 23.308594 21.574219 23.15625 21.34375 23.050781 21.085938 C 22.945312 20.828125 22.890625 20.558594 22.890625 20.277344 C 22.890625 19.996094 22.945312 19.726562 23.050781 19.46875 C 23.15625 19.207031 23.308594 18.980469 23.507812 18.78125 C 23.703125 18.585938 23.933594 18.429688 24.191406 18.324219 C 24.449219 18.21875 24.71875 18.164062 24.996094 18.164062 C 25.277344 18.164062 25.546875 18.21875 25.804688 18.324219 C 26.0625 18.429688 26.289062 18.585938 26.488281 18.78125 C 26.683594 18.980469 26.835938 19.207031 26.945312 19.46875 C 27.050781 19.726562 27.105469 19.996094 27.105469 20.277344 Z M 27.105469 20.277344 "/>
</g>
<g clip-path="url(#clip5)" clip-rule="nonzero">
<path style=" stroke:none;fill-rule:nonzero;fill:rgb(100%,25.099182%,50.588989%);fill-opacity:1;" d="M 7.839844 9.40625 C 7.839844 9.6875 7.785156 9.957031 7.679688 10.214844 C 7.574219 10.476562 7.421875 10.703125 7.222656 10.902344 C 7.027344 11.101562 6.796875 11.253906 6.539062 11.359375 C 6.28125 11.46875 6.011719 11.519531 5.734375 11.519531 C 5.453125 11.519531 5.183594 11.46875 4.925781 11.359375 C 4.667969 11.253906 4.441406 11.101562 4.242188 10.902344 C 4.046875 10.703125 3.894531 10.476562 3.785156 10.214844 C 3.679688 9.957031 3.625 9.6875 3.625 9.40625 C 3.625 9.128906 3.679688 8.859375 3.785156 8.597656 C 3.894531 8.339844 4.046875 8.113281 4.242188 7.914062 C 4.441406 7.714844 4.667969 7.5625 4.925781 7.453125 C 5.183594 7.347656 5.453125 7.292969 5.734375 7.292969 C 6.011719 7.292969 6.28125 7.347656 6.539062 7.453125 C 6.796875 7.5625 7.027344 7.714844 7.222656 7.914062 C 7.421875 8.113281 7.574219 8.339844 7.679688 8.597656 C 7.785156 8.859375 7.839844 9.128906 7.839844 9.40625 Z M 7.839844 9.40625 "/>
</g>
<g clip-path="url(#clip6)" clip-rule="nonzero">
<path style=" stroke:none;fill-rule:nonzero;fill:rgb(100%,25.099182%,50.588989%);fill-opacity:1;" d="M 27.105469 9.40625 C 27.105469 9.6875 27.050781 9.957031 26.945312 10.214844 C 26.835938 10.476562 26.683594 10.703125 26.488281 10.902344 C 26.289062 11.101562 26.0625 11.253906 25.804688 11.359375 C 25.546875 11.46875 25.277344 11.519531 24.996094 11.519531 C 24.71875 11.519531 24.449219 11.46875 24.191406 11.359375 C 23.933594 11.253906 23.703125 11.101562 23.507812 10.902344 C 23.308594 10.703125 23.15625 10.476562 23.050781 10.214844 C 22.945312 9.957031 22.890625 9.6875 22.890625 9.40625 C 22.890625 9.128906 22.945312 8.859375 23.050781 8.597656 C 23.15625 8.339844 23.308594 8.113281 23.507812 7.914062 C 23.703125 7.714844 23.933594 7.5625 24.191406 7.453125 C 24.449219 7.347656 24.71875 7.292969 24.996094 7.292969 C 25.277344 7.292969 25.546875 7.347656 25.804688 7.453125 C 26.0625 7.5625 26.289062 7.714844 26.488281 7.914062 C 26.683594 8.113281 26.835938 8.339844 26.945312 8.597656 C 27.050781 8.859375 27.105469 9.128906 27.105469 9.40625 Z M 27.105469 9.40625 "/>
</g>
<g clip-path="url(#clip7)" clip-rule="nonzero">
<path style=" stroke:none;fill-rule:nonzero;fill:rgb(100%,25.099182%,50.588989%);fill-opacity:1;" d="M 26.332031 21.183594 L 4.398438 21.183594 L 15.367188 1.847656 Z M 6.46875 19.976562 L 24.261719 19.976562 L 15.367188 4.289062 Z M 6.46875 19.976562 "/>
</g>
</g>
</svg>
