<?xml version="1.0" encoding="UTF-8"?>
<svg xmlns="http://www.w3.org/2000/svg" xmlns:xlink="http://www.w3.org/1999/xlink" width="30pt" height="30.000001pt" viewBox="0 0 30 30.000001" version="1.2">
<defs>
<clipPath id="clip1">
  <path d="M 2.039062 3.609375 L 6 3.609375 L 6 18 L 2.039062 18 Z M 2.039062 3.609375 "/>
</clipPath>
<clipPath id="clip2">
  <path d="M 24 12 L 28.167969 12 L 28.167969 22 L 24 22 Z M 24 12 "/>
</clipPath>
<clipPath id="clip3">
  <path d="M 24 4 L 28.167969 4 L 28.167969 11 L 24 11 Z M 24 4 "/>
</clipPath>
<clipPath id="clip4">
  <path d="M 18 3.609375 L 22 3.609375 L 22 18 L 18 18 Z M 18 3.609375 "/>
</clipPath>
<clipPath id="clip5">
  <path d="M 2.039062 3.609375 L 12 3.609375 L 12 14 L 2.039062 14 Z M 2.039062 3.609375 "/>
</clipPath>
<clipPath id="clip6">
  <path d="M 11 3.609375 L 22 3.609375 L 22 14 L 11 14 Z M 11 3.609375 "/>
</clipPath>
<clipPath id="clip7">
  <path d="M 18 15 L 28.167969 15 L 28.167969 26.097656 L 18 26.097656 Z M 18 15 "/>
</clipPath>
</defs>
<g id="surface1">
<g clip-path="url(#clip1)" clip-rule="nonzero">
<path style=" stroke:none;fill-rule:nonzero;fill:rgb(16.079712%,71.369934%,96.469116%);fill-opacity:1;" d="M 2.050781 3.609375 L 5.484375 5.859375 L 5.484375 17.101562 L 2.050781 14.855469 Z M 2.050781 3.609375 "/>
</g>
<g clip-path="url(#clip2)" clip-rule="nonzero">
<path style=" stroke:none;fill-rule:nonzero;fill:rgb(0.779724%,53.329468%,81.959534%);fill-opacity:1;" d="M 28.371094 12.042969 L 24.941406 14.292969 L 24.941406 21.601562 L 28.371094 19.351562 Z M 28.371094 12.042969 "/>
</g>
<g clip-path="url(#clip3)" clip-rule="nonzero">
<path style=" stroke:none;fill-rule:nonzero;fill:rgb(0.779724%,53.329468%,81.959534%);fill-opacity:1;" d="M 28.371094 4.171875 L 24.941406 6.421875 L 24.941406 10.355469 L 28.371094 8.109375 Z M 28.371094 4.171875 "/>
</g>
<g clip-path="url(#clip4)" clip-rule="nonzero">
<path style=" stroke:none;fill-rule:nonzero;fill:rgb(0.779724%,53.329468%,81.959534%);fill-opacity:1;" d="M 21.507812 3.609375 L 18.074219 5.859375 L 18.074219 17.101562 L 21.507812 14.855469 Z M 21.507812 3.609375 "/>
</g>
<g clip-path="url(#clip5)" clip-rule="nonzero">
<path style=" stroke:none;fill-rule:nonzero;fill:rgb(16.079712%,71.369934%,96.469116%);fill-opacity:1;" d="M 2.050781 7.546875 L 11.78125 13.730469 L 11.78125 9.792969 L 2.050781 3.609375 Z M 2.050781 7.546875 "/>
</g>
<g clip-path="url(#clip6)" clip-rule="nonzero">
<path style=" stroke:none;fill-rule:nonzero;fill:rgb(0.779724%,53.329468%,81.959534%);fill-opacity:1;" d="M 21.507812 7.546875 L 11.78125 13.730469 L 11.78125 9.792969 L 21.507812 3.609375 Z M 21.507812 7.546875 "/>
</g>
<path style=" stroke:none;fill-rule:nonzero;fill:rgb(0.779724%,53.329468%,81.959534%);fill-opacity:1;" d="M 21.507812 15.417969 L 11.78125 21.601562 L 11.78125 17.664062 L 21.507812 11.480469 Z M 21.507812 15.417969 "/>
<g clip-path="url(#clip7)" clip-rule="nonzero">
<path style=" stroke:none;fill-rule:nonzero;fill:rgb(0.779724%,53.329468%,81.959534%);fill-opacity:1;" d="M 28.371094 19.914062 L 18.644531 26.097656 L 18.644531 22.164062 L 28.371094 15.980469 Z M 28.371094 19.914062 "/>
</g>
<path style=" stroke:none;fill-rule:nonzero;fill:rgb(16.079712%,71.369934%,96.469116%);fill-opacity:1;" d="M 18.644531 22.03125 L 11.78125 17.664062 L 11.78125 21.601562 L 18.644531 25.964844 Z M 18.644531 22.03125 "/>
</g>
</svg>
