<?xml version="1.0" encoding="UTF-8"?>
<svg xmlns="http://www.w3.org/2000/svg" xmlns:xlink="http://www.w3.org/1999/xlink" width="30pt" height="30.000001pt" viewBox="0 0 30 30.000001" version="1.2">
<defs>
<clipPath id="clip1">
  <path d="M 6 2.902344 L 22 2.902344 L 22 23 L 6 23 Z M 6 2.902344 "/>
</clipPath>
<clipPath id="clip2">
  <path d="M 10 10 L 28 10 L 28 27.582031 L 10 27.582031 Z M 10 10 "/>
</clipPath>
<clipPath id="clip3">
  <path d="M 1 14 L 22 14 L 22 27.582031 L 1 27.582031 Z M 1 14 "/>
</clipPath>
</defs>
<g id="surface1">
<g clip-path="url(#clip1)" clip-rule="nonzero">
<path style=" stroke:none;fill-rule:nonzero;fill:rgb(49.409485%,34.118652%,76.078796%);fill-opacity:1;" d="M 13.839844 2.902344 C 9.761719 2.902344 6.445312 7.414062 6.445312 12.960938 C 6.445312 15.960938 7.417969 18.652344 8.957031 20.492188 C 8.929688 20.625 8.910156 20.761719 8.910156 20.902344 C 8.910156 21.929688 9.738281 22.765625 10.757812 22.765625 C 11.78125 22.765625 12.605469 21.929688 12.605469 20.902344 C 12.605469 19.875 11.78125 19.039062 10.757812 19.039062 C 10.5625 19.039062 10.382812 19.078125 10.207031 19.132812 C 9.035156 17.632812 8.292969 15.425781 8.292969 12.960938 C 8.292969 8.441406 10.78125 4.765625 13.839844 4.765625 C 16.203125 4.765625 18.222656 6.964844 19.019531 10.050781 C 19.710938 10.265625 20.394531 10.539062 21.070312 10.863281 C 20.359375 6.320312 17.386719 2.902344 13.839844 2.902344 Z M 13.839844 2.902344 "/>
</g>
<g clip-path="url(#clip2)" clip-rule="nonzero">
<path style=" stroke:none;fill-rule:nonzero;fill:rgb(49.409485%,34.118652%,76.078796%);fill-opacity:1;" d="M 21.546875 12.886719 C 19.113281 11.402344 16.386719 10.75 14.039062 11.050781 C 13.699219 10.625 13.1875 10.351562 12.605469 10.351562 C 11.585938 10.351562 10.757812 11.183594 10.757812 12.210938 C 10.757812 13.242188 11.585938 14.074219 12.605469 14.074219 C 13.390625 14.074219 14.058594 13.582031 14.324219 12.886719 C 16.246094 12.652344 18.523438 13.21875 20.589844 14.480469 C 24.535156 16.886719 26.546875 21.039062 25.074219 23.734375 C 24.566406 24.667969 23.667969 25.328125 22.476562 25.652344 C 21.066406 26.03125 19.390625 25.894531 17.714844 25.324219 C 17.199219 25.800781 16.636719 26.253906 16.035156 26.667969 C 17.609375 27.363281 19.238281 27.726562 20.761719 27.726562 C 21.523438 27.726562 22.261719 27.636719 22.953125 27.449219 C 24.644531 26.992188 25.9375 26.019531 26.695312 24.628906 C 28.636719 21.074219 26.328125 15.804688 21.546875 12.886719 Z M 21.546875 12.886719 "/>
</g>
<g clip-path="url(#clip3)" clip-rule="nonzero">
<path style=" stroke:none;fill-rule:nonzero;fill:rgb(49.409485%,34.118652%,76.078796%);fill-opacity:1;" d="M 21.234375 18.414062 C 21.234375 17.390625 20.40625 16.558594 19.386719 16.558594 C 18.363281 16.558594 17.535156 17.390625 17.535156 18.414062 C 17.535156 18.828125 17.675781 19.210938 17.90625 19.519531 C 17.117188 21.257812 15.597656 22.972656 13.554688 24.222656 C 11.171875 25.675781 8.511719 26.210938 6.433594 25.652344 C 5.242188 25.328125 4.34375 24.667969 3.835938 23.734375 C 2.785156 21.8125 3.515625 19.15625 5.445312 16.914062 C 5.246094 16.203125 5.097656 15.460938 5.007812 14.695312 C 1.882812 17.671875 0.628906 21.722656 2.214844 24.628906 C 2.972656 26.019531 4.269531 26.992188 5.957031 27.449219 C 6.648438 27.636719 7.386719 27.726562 8.148438 27.726562 C 10.210938 27.726562 12.46875 27.0625 14.511719 25.816406 C 16.875 24.371094 18.632812 22.355469 19.570312 20.253906 C 20.503906 20.15625 21.234375 19.375 21.234375 18.414062 Z M 21.234375 18.414062 "/>
</g>
</g>
</svg>
