<?xml version="1.0" encoding="UTF-8"?>
<svg xmlns="http://www.w3.org/2000/svg" xmlns:xlink="http://www.w3.org/1999/xlink" width="30pt" height="30.000001pt" viewBox="0 0 30 30.000001" version="1.2">
<defs>
<clipPath id="clip1">
  <path d="M 0.484375 4 L 28.789062 4 L 28.789062 25.894531 L 0.484375 25.894531 Z M 0.484375 4 "/>
</clipPath>
</defs>
<g id="surface1">
<g clip-path="url(#clip1)" clip-rule="nonzero">
<path style=" stroke:none;fill-rule:nonzero;fill:rgb(94.119263%,38.42926%,57.249451%);fill-opacity:1;" d="M 25.09375 16.523438 C 24.097656 16.527344 23.238281 16.765625 22.515625 17.125 C 22.253906 16.597656 21.984375 16.132812 21.941406 15.789062 C 21.886719 15.386719 21.828125 15.144531 21.890625 14.667969 C 21.953125 14.1875 22.230469 13.507812 22.226562 13.457031 C 22.222656 13.40625 22.164062 13.164062 21.59375 13.160156 C 21.019531 13.15625 20.527344 13.269531 20.46875 13.421875 C 20.414062 13.570312 20.300781 13.914062 20.234375 14.269531 C 20.132812 14.789062 19.089844 16.644531 18.496094 17.613281 C 18.300781 17.234375 18.136719 16.898438 18.101562 16.636719 C 18.050781 16.234375 17.988281 15.992188 18.054688 15.515625 C 18.117188 15.035156 18.394531 14.355469 18.390625 14.304688 C 18.386719 14.253906 18.328125 14.011719 17.753906 14.007812 C 17.179688 14.003906 16.691406 14.117188 16.632812 14.269531 C 16.574219 14.417969 16.511719 14.773438 16.394531 15.117188 C 16.277344 15.457031 14.890625 18.550781 14.527344 19.351562 C 14.339844 19.761719 14.179688 20.089844 14.066406 20.3125 C 14.066406 20.3125 14.058594 20.328125 14.046875 20.351562 C 13.949219 20.542969 13.890625 20.648438 13.890625 20.648438 C 13.890625 20.648438 13.890625 20.648438 13.894531 20.652344 C 13.816406 20.792969 13.734375 20.921875 13.691406 20.921875 C 13.664062 20.921875 13.605469 20.550781 13.707031 20.039062 C 13.910156 18.964844 14.40625 17.292969 14.402344 17.234375 C 14.402344 17.203125 14.496094 16.914062 14.078125 16.761719 C 13.675781 16.613281 13.53125 16.859375 13.492188 16.859375 C 13.457031 16.859375 13.429688 16.945312 13.429688 16.945312 C 13.429688 16.945312 13.882812 15.066406 12.570312 15.066406 C 11.753906 15.066406 10.617188 15.960938 10.058594 16.773438 C 9.703125 16.964844 8.949219 17.378906 8.148438 17.820312 C 7.839844 17.988281 7.527344 18.160156 7.226562 18.324219 C 7.207031 18.304688 7.1875 18.28125 7.167969 18.257812 C 5.578125 16.5625 2.640625 15.363281 2.761719 13.082031 C 2.808594 12.253906 3.097656 10.070312 8.410156 7.425781 C 12.761719 5.257812 16.246094 5.855469 16.847656 7.175781 C 17.707031 9.066406 14.984375 12.578125 10.464844 13.082031 C 8.742188 13.277344 7.835938 12.609375 7.613281 12.359375 C 7.375 12.097656 7.339844 12.085938 7.25 12.136719 C 7.105469 12.214844 7.195312 12.449219 7.25 12.585938 C 7.386719 12.9375 7.9375 13.558594 8.882812 13.867188 C 9.714844 14.140625 11.734375 14.289062 14.179688 13.34375 C 16.917969 12.285156 19.054688 9.339844 18.425781 6.878906 C 17.789062 4.375 13.636719 3.550781 9.703125 4.945312 C 7.363281 5.777344 4.832031 7.082031 3.007812 8.785156 C 0.84375 10.808594 0.5 12.570312 0.640625 13.308594 C 1.148438 15.925781 4.753906 17.628906 6.199219 18.890625 C 6.125 18.929688 6.058594 18.96875 6 19 C 5.273438 19.359375 2.523438 20.796875 1.835938 22.320312 C 1.058594 24.042969 1.960938 25.28125 2.558594 25.445312 C 4.414062 25.960938 6.316406 25.035156 7.339844 23.507812 C 8.363281 21.984375 8.238281 19.996094 7.769531 19.089844 C 7.765625 19.078125 7.757812 19.070312 7.75 19.058594 C 7.9375 18.945312 8.128906 18.835938 8.316406 18.722656 C 8.6875 18.507812 9.046875 18.304688 9.363281 18.132812 C 9.1875 18.613281 9.058594 19.191406 8.992188 20.027344 C 8.910156 21.003906 9.3125 22.269531 9.839844 22.765625 C 10.070312 22.988281 10.347656 22.992188 10.523438 22.992188 C 11.132812 22.992188 11.414062 22.484375 11.71875 21.882812 C 12.097656 21.144531 12.429688 20.285156 12.429688 20.285156 C 12.429688 20.285156 12.011719 22.605469 13.152344 22.605469 C 13.570312 22.605469 13.988281 22.066406 14.175781 21.789062 C 14.175781 21.792969 14.175781 21.796875 14.175781 21.796875 C 14.175781 21.796875 14.1875 21.777344 14.207031 21.742188 C 14.25 21.675781 14.277344 21.632812 14.277344 21.632812 C 14.277344 21.632812 14.277344 21.628906 14.277344 21.621094 C 14.445312 21.332031 14.816406 20.667969 15.371094 19.578125 C 16.089844 18.167969 16.78125 16.398438 16.78125 16.398438 C 16.78125 16.398438 16.84375 16.832031 17.054688 17.546875 C 17.179688 17.964844 17.441406 18.429688 17.648438 18.875 C 17.480469 19.109375 17.378906 19.242188 17.378906 19.242188 C 17.378906 19.242188 17.378906 19.242188 17.382812 19.246094 C 17.25 19.425781 17.097656 19.617188 16.941406 19.800781 C 16.375 20.476562 15.699219 21.25 15.609375 21.472656 C 15.503906 21.734375 15.527344 21.925781 15.734375 22.082031 C 15.882812 22.195312 16.152344 22.214844 16.433594 22.195312 C 16.941406 22.160156 17.300781 22.035156 17.476562 21.957031 C 17.753906 21.859375 18.074219 21.707031 18.375 21.484375 C 18.933594 21.074219 19.269531 20.492188 19.234375 19.714844 C 19.21875 19.289062 19.082031 18.863281 18.910156 18.464844 C 18.960938 18.390625 19.011719 18.320312 19.0625 18.246094 C 19.9375 16.960938 20.621094 15.554688 20.621094 15.554688 C 20.621094 15.554688 20.683594 15.984375 20.894531 16.699219 C 21 17.0625 21.210938 17.457031 21.398438 17.84375 C 20.574219 18.511719 20.0625 19.292969 19.882812 19.800781 C 19.554688 20.746094 19.8125 21.175781 20.296875 21.273438 C 20.515625 21.316406 20.824219 21.21875 21.054688 21.117188 C 21.34375 21.023438 21.691406 20.863281 22.015625 20.625 C 22.570312 20.214844 23.109375 19.644531 23.074219 18.867188 C 23.058594 18.515625 22.964844 18.164062 22.835938 17.828125 C 23.535156 17.535156 24.4375 17.375 25.59375 17.507812 C 28.066406 17.796875 28.550781 19.34375 28.460938 19.988281 C 28.367188 20.636719 27.847656 20.992188 27.671875 21.097656 C 27.5 21.207031 27.449219 21.242188 27.460938 21.324219 C 27.484375 21.4375 27.5625 21.433594 27.710938 21.410156 C 27.914062 21.375 29.011719 20.882812 29.058594 19.691406 C 29.117188 18.175781 27.664062 16.511719 25.09375 16.523438 Z M 6.023438 22.953125 C 5.203125 23.847656 4.058594 24.183594 3.570312 23.898438 C 3.039062 23.59375 3.25 22.277344 4.253906 21.328125 C 4.867188 20.75 5.660156 20.214844 6.183594 19.886719 C 6.304688 19.816406 6.476562 19.710938 6.691406 19.582031 C 6.726562 19.5625 6.746094 19.550781 6.746094 19.550781 C 6.789062 19.527344 6.828125 19.5 6.875 19.476562 C 7.238281 20.824219 6.882812 22.015625 6.023438 22.953125 Z M 11.996094 18.894531 C 11.710938 19.589844 11.113281 21.371094 10.75 21.273438 C 10.4375 21.191406 10.246094 19.839844 10.6875 18.507812 C 10.90625 17.835938 11.378906 17.035156 11.660156 16.726562 C 12.105469 16.226562 12.597656 16.0625 12.71875 16.265625 C 12.871094 16.523438 12.171875 18.457031 11.996094 18.894531 Z M 16.925781 21.246094 C 16.804688 21.3125 16.695312 21.351562 16.644531 21.320312 C 16.605469 21.296875 16.691406 21.214844 16.691406 21.214844 C 16.691406 21.214844 17.308594 20.550781 17.554688 20.246094 C 17.695312 20.070312 17.859375 19.863281 18.035156 19.628906 C 18.039062 19.652344 18.039062 19.675781 18.039062 19.699219 C 18.039062 20.496094 17.269531 21.03125 16.925781 21.246094 Z M 20.726562 20.382812 C 20.636719 20.316406 20.652344 20.109375 20.949219 19.460938 C 21.0625 19.207031 21.332031 18.78125 21.792969 18.371094 C 21.84375 18.539062 21.878906 18.703125 21.878906 18.851562 C 21.871094 19.851562 21.15625 20.226562 20.726562 20.382812 Z M 20.726562 20.382812 "/>
</g>
</g>
</svg>
