<?xml version="1.0" encoding="UTF-8"?>
<svg xmlns="http://www.w3.org/2000/svg" xmlns:xlink="http://www.w3.org/1999/xlink" width="30pt" height="30.000001pt" viewBox="0 0 30 30.000001" version="1.2">
<defs>
<clipPath id="clip1">
  <path d="M 2.480469 1.996094 L 27.882812 1.996094 L 27.882812 27.398438 L 2.480469 27.398438 Z M 2.480469 1.996094 "/>
</clipPath>
</defs>
<g id="surface1">
<g clip-path="url(#clip1)" clip-rule="nonzero">
<path style=" stroke:none;fill-rule:nonzero;fill:rgb(0%,47.839355%,79.998779%);fill-opacity:1;" d="M 2.480469 27.765625 L 28.25 27.765625 L 28.25 1.996094 L 2.480469 1.996094 Z M 2.480469 27.765625 "/>
</g>
<path style=" stroke:none;fill-rule:nonzero;fill:rgb(100%,100%,100%);fill-opacity:1;" d="M 8.175781 14.964844 L 8.167969 16.023438 L 11.523438 16.023438 L 11.523438 25.554688 L 13.898438 25.554688 L 13.898438 16.023438 L 17.25 16.023438 L 17.25 14.988281 C 17.25 14.414062 17.238281 13.933594 17.222656 13.921875 C 17.210938 13.90625 15.167969 13.898438 12.695312 13.902344 L 8.191406 13.914062 Z M 8.175781 14.964844 "/>
<path style=" stroke:none;fill-rule:nonzero;fill:rgb(100%,100%,100%);fill-opacity:1;" d="M 23.273438 13.886719 C 23.929688 14.050781 24.429688 14.339844 24.886719 14.8125 C 25.125 15.066406 25.476562 15.53125 25.503906 15.640625 C 25.511719 15.675781 24.390625 16.425781 23.710938 16.847656 C 23.6875 16.863281 23.589844 16.757812 23.480469 16.59375 C 23.148438 16.109375 22.800781 15.902344 22.269531 15.867188 C 21.488281 15.8125 20.984375 16.222656 20.988281 16.90625 C 20.988281 17.105469 21.015625 17.222656 21.097656 17.386719 C 21.269531 17.742188 21.589844 17.957031 22.589844 18.390625 C 24.4375 19.183594 25.226562 19.707031 25.71875 20.453125 C 26.265625 21.28125 26.386719 22.605469 26.015625 23.59375 C 25.605469 24.664062 24.59375 25.390625 23.164062 25.632812 C 22.722656 25.710938 21.675781 25.699219 21.199219 25.613281 C 20.164062 25.429688 19.183594 24.917969 18.578125 24.246094 C 18.339844 23.984375 17.878906 23.300781 17.90625 23.253906 C 17.921875 23.238281 18.027344 23.171875 18.144531 23.101562 C 18.261719 23.035156 18.695312 22.789062 19.101562 22.550781 L 19.84375 22.121094 L 20 22.347656 C 20.214844 22.679688 20.691406 23.132812 20.976562 23.285156 C 21.796875 23.71875 22.925781 23.65625 23.484375 23.160156 C 23.722656 22.941406 23.820312 22.71875 23.820312 22.386719 C 23.820312 22.085938 23.78125 21.957031 23.625 21.730469 C 23.425781 21.445312 23.015625 21.203125 21.855469 20.703125 C 20.527344 20.128906 19.953125 19.773438 19.429688 19.207031 C 19.125 18.878906 18.839844 18.355469 18.722656 17.917969 C 18.625 17.554688 18.597656 16.644531 18.675781 16.273438 C 18.953125 14.992188 19.921875 14.09375 21.320312 13.828125 C 21.773438 13.742188 22.828125 13.773438 23.273438 13.886719 Z M 23.273438 13.886719 "/>
</g>
</svg>
